<mxfile host="65bd71144e">
    <diagram id="MT072uKzylEcBe0wh_JU" name="Page-1">
        <mxGraphModel dx="818" dy="478" grid="1" gridSize="10" guides="1" tooltips="1" connect="1" arrows="1" fold="1" page="1" pageScale="1" pageWidth="850" pageHeight="1100" math="0" shadow="0">
            <root>
                <mxCell id="0"/>
                <mxCell id="1" parent="0"/>
                <mxCell id="9" style="edgeStyle=none;html=1;" edge="1" parent="1" source="2" target="8">
                    <mxGeometry relative="1" as="geometry"/>
                </mxCell>
                <mxCell id="2" value="" style="dashed=0;outlineConnect=0;html=1;align=center;labelPosition=center;verticalLabelPosition=bottom;verticalAlign=top;shape=mxgraph.weblogos.twitter;fillColor=#1DA1F2;strokeColor=none" vertex="1" parent="1">
                    <mxGeometry x="40" y="210" width="70" height="50" as="geometry"/>
                </mxCell>
                <mxCell id="11" value="" style="edgeStyle=none;html=1;" edge="1" parent="1" source="3" target="4">
                    <mxGeometry relative="1" as="geometry"/>
                </mxCell>
                <mxCell id="3" value="kinesis firehose" style="sketch=0;points=[[0,0,0],[0.25,0,0],[0.5,0,0],[0.75,0,0],[1,0,0],[0,1,0],[0.25,1,0],[0.5,1,0],[0.75,1,0],[1,1,0],[0,0.25,0],[0,0.5,0],[0,0.75,0],[1,0.25,0],[1,0.5,0],[1,0.75,0]];outlineConnect=0;fontColor=default;gradientColor=#945DF2;gradientDirection=north;fillColor=#5A30B5;strokeColor=#ffffff;dashed=0;verticalLabelPosition=bottom;verticalAlign=top;align=center;html=1;fontSize=12;fontStyle=0;aspect=fixed;shape=mxgraph.aws4.resourceIcon;resIcon=mxgraph.aws4.kinesis_data_firehose;" vertex="1" parent="1">
                    <mxGeometry x="301" y="201" width="68" height="68" as="geometry"/>
                </mxCell>
                <mxCell id="12" value="" style="edgeStyle=none;html=1;" edge="1" parent="1" source="4" target="5">
                    <mxGeometry relative="1" as="geometry"/>
                </mxCell>
                <mxCell id="4" value="S3" style="sketch=0;points=[[0,0,0],[0.25,0,0],[0.5,0,0],[0.75,0,0],[1,0,0],[0,1,0],[0.25,1,0],[0.5,1,0],[0.75,1,0],[1,1,0],[0,0.25,0],[0,0.5,0],[0,0.75,0],[1,0.25,0],[1,0.5,0],[1,0.75,0]];outlineConnect=0;fontColor=default;gradientColor=#60A337;gradientDirection=north;fillColor=#277116;strokeColor=#ffffff;dashed=0;verticalLabelPosition=bottom;verticalAlign=top;align=center;html=1;fontSize=12;fontStyle=0;aspect=fixed;shape=mxgraph.aws4.resourceIcon;resIcon=mxgraph.aws4.s3;" vertex="1" parent="1">
                    <mxGeometry x="436" y="206" width="58" height="58" as="geometry"/>
                </mxCell>
                <mxCell id="13" value="" style="edgeStyle=none;html=1;" edge="1" parent="1" source="5" target="6">
                    <mxGeometry relative="1" as="geometry"/>
                </mxCell>
                <mxCell id="5" value="Lambda" style="outlineConnect=0;dashed=0;verticalLabelPosition=bottom;verticalAlign=top;align=center;html=1;shape=mxgraph.aws3.lambda_function;fillColor=#F58534;gradientColor=none;" vertex="1" parent="1">
                    <mxGeometry x="561" y="199" width="69" height="72" as="geometry"/>
                </mxCell>
                <mxCell id="6" value="Elasic Search" style="sketch=0;outlineConnect=0;fontColor=default;gradientColor=none;strokeColor=#ffffff;fillColor=#232F3E;dashed=0;verticalLabelPosition=middle;verticalAlign=bottom;align=center;html=1;whiteSpace=wrap;fontSize=10;fontStyle=1;spacing=3;shape=mxgraph.aws4.productIcon;prIcon=mxgraph.aws4.elasticsearch_service;" vertex="1" parent="1">
                    <mxGeometry x="690" y="200" width="70" height="70" as="geometry"/>
                </mxCell>
                <mxCell id="14" value="" style="edgeStyle=none;html=1;" edge="1" parent="1" source="7" target="6">
                    <mxGeometry relative="1" as="geometry"/>
                </mxCell>
                <mxCell id="7" value="Kibana" style="shape=image;verticalLabelPosition=bottom;labelBackgroundColor=none;verticalAlign=top;aspect=fixed;imageAspect=0;image=data:image/png,iVBORw0KGgoAAAANSUhEUgAAAJYAAADJCAYAAADB2cvAAAAAAXNSR0IArs4c6QAAAARnQU1BAACxjwv8YQUAAAAJcEhZcwAADsMAAA7DAcdvqGQAAAAhdEVYdENyZWF0aW9uIFRpbWUAMjAyMjowNDowMiAxODoxMDoxMhPDgmkAAB5iSURBVHhe7Z0JYBvllcffjO7DsiwfwVfsOHbuxLmdO9y00ISjlAUaFpYmXC2lbLkKlFI2UGgpbZqWI5RuoS1HoS2UUEKA0i4EAiWhJORyLtuJ70uWZcuWNDP73sxnx0mcxIdG1vH9YCLpzWhG1vz1vve+EzgcDiduEOifwPpt1wXXf3G7IkAQFLQJgmoHQIsCMloUfCEzk7ZPwH1E7/HqsWyfdoygsGMIPIo9OzE95x4Ufa7RHwO5brRQ1O/xGIQjNvzC2LPeY/Er0WwK7tPuA9LHRvTaGcpR5zz67z/mHtHBx9uO0HMPj/ocxNHXlPCgkCKDWXRb61K+ffZl6psCz3/8YNcLW+5WD+FwhgLJTJbBfutZKyznTPyDJqwXP1nd9eLWe+g5hzNo0ImhrrotF0xZY1+16Hvo+GSR7eJwhgYqSgljGfjlyU+iqO4lUZGZC4szPEJhME067SP7JTMfQVGFmLVXWFpgzuEMhpAEQmFGueXqBd8Rs5y1zKrChNUni+BwBoCCooI0e4tjRdkt5inZnzBzL6qwMPTiHoszcCSUi83Ubbto2oOmBWM2MOtRaB6r3/oVDqcfZBSL2SBZLpj6U8tXZ/6CWY+DF4WcQWOakrPRfs28BzFYDzPTcfQE7xzOqUH3IxZ6tjuuX3gjiqqTWfuFC4szMKhFyeOoSvneuReKOZ5KZj0hTFinaG/jJDcYVwkmQ4fjpiUrxey0g8x6UrjH4pwcFBWYDV2Wr8++wzSn4G1mPSWasGKpBwAndqCUTpbBcvGM1baLZz6uGQcG91icE6KEJTCWFf7ZesWsR5lpwKjCEobUD4qT0ATDYJw5eoPzuqXfFEWxm1kHDPdYnONQusNgKEjfZ7l69u3CKGcdMw8KLizO0WDxJ6bbvebLZ99mKc7+glkHDRcW5wiSDILL1mm7Ys7t1qUlrzHrkODC4mhQBmgQwbig6DnLBVN/rRmHjiYsXt3AQYwz816337TkNvZyWHCPxVGLQENx5ieOm85fgRlgB7MOCy6sZIf6VmWm1FluXLhSzBB9zDpsuLCSGWqu8dianNfO/4al+LTtzBoRuLCSFRqyJSqK/aoFN5sWFf+NWSMGF1ZSgp5KUsBy/pTHLGePf5EZIwoXVjLSLYPlS5Mft61cpNsgZS6sJEPpCoFhVt5b1oum3zeUNsCBwoWVTIQkEIsy91qunH23mJfazKy6wIWVLIRlELJdjY6r591omZS7lVl1gwsrGaAhWxaDZD5n4k9MZYXvMquucGElOqwN0HruxLW2ywbfYW+ocGElOrIMpvljXrJdt/g2oWfytCjAhZXIYLBuKMnaar9mwa0oKolZowIXVqKCnspQlFFuuWHJymNngokGXFiJCE0TajV1WFctvMYyLuszZo0qXFiJBrUBCqJsXVH2XfO0vI+YNepwYSUakgL2q8putS2f9hSzjAhcWAkENdeYz5nwtOWS0l8x04jBhZUg0Ax7xpkFf7dfPve+aGeA/cGFlQiEwtS1eEfKqvnfHOo4wEjDhRXvUNfiFGvQ+qVJjwpjMncz64jDhRXPUNdiuyVkvbLsVsuXp/yWWWMCLqx4heqqcLOcNe4J2/Kpg5oJJhpwYcUjpClJAeO8wtdsF5T+D7PGFExYfEa/+AJFNSv/bceqJTcKua4mZowpuMeKNzBWFxzmNuc1828ZiTbAgcKFFU9QXOUwtTm+fcZl4piMXcwak3BhxQsUVwmi7Lz5zMtN84o2MmvMwoUVD6jBugTm8yb90ji/cMATzI4kXFixDolKVsBy5vjf2K9feFcsNNcMBC6sWIfmAp2Rt8F+7ezbRFEMMGvMw4UVy9AMe7mpNdbl0x4S3O5WZo0LuLBiFOqtIKTavY5VC681zy54n5njBi6sWESWAUwG2bx8yiOmsqK3mDWu4MKKNaiuymAA6/mT11gvnfkzZo07uLBiDUEA46y8v9pWLbpXz0k79IYLK5ZAZyVmOQ84rj/9lOsBxjpcWLECiSrDWWW948sXipmOGmaNW7iwYgEasiVCt+07Z1xpKU4f8moQsQQX1khDvUANYtiyouwu89TcTcwa93BhjSTkqfDBelHpj+yXTF+jGRMDLqyRJCiBuWzMy5YVc38UzZlgogEX1kgRlsEwOWez/Yq5t8dTG+BAYcJKrF9LrKN0h0Ao9JRbrl+6Uiw69Yrw8Qj3WNGG5gJ12/3Wr868x1KSvoNZEw4urGhCc4E6zEHrFbPvtJ4x7hVmTUg0YWnJCUdP6Bs2ioCCWmddNu0JzZi4qMJSBGr55OiLAsaSrE226xffmWgZYH9wjxUNJAUM40b9y3nPWRfFexvgQNGEJQiy+siJPDRph8vSnPKtMy8XXLE5uFQPVGHhP0GDIIIBnx29CfjvkY2v8DtIqGuxy+rF4m+lUOA+wKxJgSqsDiUcbgj7oUE6stXj5pW7cF8ItyAElTAeqYBFMIBDNINdMIENN6tgRJsRzGg34WZkgkx6CVIboNkYNl817xbrkpJXmTVpUO//G7956YdvPvPHu9FpGVUrQmEXCceMoqFXJBwS0REhGcGOAiOhkS1VtOKjCVLQRo/pBpsqNBnzAhnf37ux1wkNtQGGJLBcMv2n9m8svD0ZgvVjUYX1+LonH3viqSdpknnV2AN9G33jevU1SyBJWDZRExiJK0WwqIIjb0av3Sg0El6mwQku0QJZ+JhpcECGwQ5poq333BJusiKrjwkDFoGmJcXPO648Z5WQmxzB+rGoSnr66acffuqppygNVo0DoUcY2nMSh/aMvBE9pUcqEklo5NEcKC6nYAYHbm6DFXJNqZApOiDPmAqjjW44zehQ4zoSmCY2Ok/8iU0JhMA4t+Ad53eX/Ifodrcwc9KhKmndunUP4fa9wQhroPQUez1CofSTAjuraAILSsmGj1R0etCLjTa5ocCUBuNMGTDGmAYuFKD6HvbemJcZDdnKcVfbv7XkUnNp/mZmTUoM9M+yZcvO2LJlyxI9hKXlkphV4rkp8zRS9ombjP8F0TdRYuCVujBZaIf9oRbY1l0L7wcOwuudu2Bz1yGolnyqB7NgsUveTjsn+0XEEmEZxKyUFsfK+deaZ495j1mTlh5hnY7CWqqHsE5Er+Bow+vSRh4pjDLqwgy0E7PROsxMd3TXwz8DB+B1/y74IFCBGWunWsRaUWhGekaCZecaMSjutJpl68XT77ecN/lZZk1qRkxY/aF5or7/UdRGYlMghB6uSe6E7cE6eLOzHDZ27oWdwXoIoAgpE6WCUsT/yCPSf1EFvzfz4qLfUwbILEmPegdQUDEdvmiC0zaCvBzVsW3qqoRHW/8Prq5/Ge5p2Qgvtn8O/+o+rNbBhRRJrVMjoWkS1QlJAdOColfs3znrOmbhIKrHWr58OXms00faYw0GTWhHilCK0T5FUb2NnmxXqAFa0btR/EbxHCUHlCTQnxfRX1BIBkNh+gHn7UuXCTabn1k5SE9RuDTehHUs5Jd6EoP6sB8+RpFtwphsX6gZqsM+aEMPZ8J9Tlb9Mewsk4L10WmHbTcu+ZqxIHM/s3IYfWOsuBZWX8iLUUsBSecwiurT4GHY2l2jimxPsAm6MGpziVZINzhUcQ26JUBWQEi1+R03n36ZuTQvYYZsRZK4iLGGChWVJDCqmO3CLPPjrip4yf85/Ny7CR5u/Qc86d0M/0bBUYsBbQOKxSgDxM1++ew7TTPyk75a4UREOX0aOaioJPFQ+2ez1AEfBirhd+1bVYHd1/w2/K1zN2aeklpM0rEnw/q1mQ+bLpgyousBxjpJI6y+UNMReTIqAqtDPvh7YD+s9X4I/92wHp5FsVHvDjrmWHkpgSCYz574W8uKufejl4+LuUBHiqQUVg9U9KkBPz765SDsxGzyOd9WuKHhVVjb9iE0hjtVcakCC0lgKs3baVtW+kA8Ty8ULZJaWH0h/0RbUJHAKwfgVf9OuLbxFfhBy9vBT/xVoBSlhx2rFl0lFqYdZG/hnAQurGMg76QVggoEpKD0gf+gdEf7e93fyKnY/7ZbcvsUX4Z6IOekcGGdBCwqDWA22RqnjZf+4jGPP+/VF9+9csN76zdWVZ3XorSkssM4/cCFdQoaJo2H6rIZdpoXlKS2vnJf2bkb/rThunc+fH59xb4Lqrxej3Ykpy9cWCdAkCRozz0NamZN1QxUf0WQwAQBXtm/+/xl76xf/91PP3j2tYr9X9F2cnrgwuoHGr/ry8uBygWzQLJajoiqLwajuhTJy3t3feWaf2x84eZNf1/7SU3NHLY36eHCOgYSVbfTDpWL5kAgE0s5mnP9RFATmNEErd0B59rtn33r6v/b+OJtH7//48qOjhx2RNLChdUXFJVsEOFQ2UwIeNzaYNOBIOLXiEXkLm9T0WPbttx+8ca/vvurnVtvUpTkXbmWC6sHVVQGqFhcBq1Fhf0Xf6cCi0fqn7+1oXbCnZs3/XLhX//48Wf19dPZ3qSCC4thCEtQXzoRmosLQTEMw9FQ8YgezB8OCx/W18xZ8sbL//z+Jx8+gN6rd8xmMsCFhYgYRzWPLYDGieNAMZmG5q2OhQSGW3s45Fr9+SffH//HZ/e/U115Dtub8CS9sAT0VL7sUXB43izoTk05ebA+FFBcJNNyn3f0qo/e+8vP9nx+bzIE9z3CisBPNP4QUETBFAfUzJiiZYCSfh0Wshx2yE9Ldfyp6sB9923f/JeNdZXL2a6EJGk9FlUrhKxWODx3BrQV5gGEQmxPhMHrZDocMD4rQ+3ZajQIpr1+79xHd297Zm35tgdr29uz2JEJRVIKi0SliALUlU6CpkklkYmp+gPP6zCbYWx6GhipSoJhFg0QkMIZL1Ttu/uR8s9//1Fj7elsV8KQfMIiDeENbyopgvppE7SYSg9hMVGVZKSDzUSDN47GgN7LjGL7sKXunEfLtz33xN7tD8iybGG7456kExZVJLQUFcDhshkgRyoDPBY8p8lggDGeNPA4tJl1ToTdYIT6ro78P1Tt+/4Pd3z6zI725slsV1yTdMLqcjmhctFcCGEwHfEMsA/5bhdkOO2osVMLVxu2JsB7jTVff+iLLX9+v6ku7qslkkpYIasFDp6+AEJOm86iSoU83IiB+kPypLRVdnaM+/HOLc//onz7Q/FcqZocwsK7K2M8c+CsRdCeg0mYNplX5EHvlIGesDDNrXqgwULvMOL7vKFgxquH99/+8K7P1rYoSlx2KEx8YeHNFhRZjanac0apr3UBz+u0WFRRmYw0WHbokCjRnxpfr6m44Y5//eOtL1pb4669MaGFRdUKNLq7YcoEaB4/FpQ+KX+ksWIGWIwZoAuLW2qIjgSUNe70tZQ9Vv7Zbz9taVjMzHFBYgtLkqGZMsA5pRA+UYe9CCCiAArTUiHdbo2YqHqgOq897d7S72/7+E9/PnRgFTPHPAkrLFGSoCMzXW2uCWN2plewTh4x3+WCHMw2JZ2Ea0LhdkjhzMf2fP6LZw7uvIuZY5qEFBb1V+/EWEfrBZqO6SDNUa8DKKT8VBcUprt1ywd6oOYggyhYf3dgzw9+Wb5tdaxnjAknLGpYDtusUI3FX3t+Dt58nRqWUUlpdjsUYBE4+PxvaNB1FEGwvlC1764f7vj0qaqOjlxtT+yRUMJS2wAxI6ufOhFaxxZqvRX08CR4HTfGUyUZHvQi0f0K1SoJUTS8VVd17SO7tzy3vaWlVNsTWySUsCjrq580HupmTMZfNhl0UBWe02Y2wVgUlcOizeIcbehPo6D+361NZ67Zu+2pbS0t07Q9sUNCCas9KwMOz5sBEo3900NUiIDipTZAl9WKl9A5sDoJzHPBbn9L2dq929btbG+eou2JDRJDWHiDu9wuqDh9vjogQi9R0ZdVnO6BLKdjREXVgyouQYSd7S1la3Z/sW6Pr2mitmfkiXthUVwVdNhg37lLoYu6Fut1wzEpyEHxUrUC3dBYgqojtrc1zf/Znh3rdvsaJzDziBLXwqIMUDYaoWrhXAjgTdcLEm86eqk8l0sN1kfeVx0PxVyftzUtWrN757pdbW3jmXnEiFth0c2m/lTVs0vBS12LBZ38CF7HZbNCMQbrdgzaI12zHkksKK7P2poWryn/bN2Bzs4CZh4R4lJYJCHyVvWTJ6i9QBUd4yozekQK1p2YAcayqHqw4nfxb2/zksf3fPbYSPaMiE+PJUnQWpgPdSgq2Yii0qm5hrKuovQ08NhtIOldtR5BSFwfNNVd8sSuLQ+PVHfnuBOWEA5DW242VC6cAyFqAxzo/AqDBXVEospOSYkLT3UsJK43aw+tWrN3+/2YwUb9PseVsKhhuSvNDdVzp0M3Tdqhk6eiYjUbM0wS1TDXrxhRDIJgWF9decvavdsfYKaoETfCErAoCtls6kRofuqwh55LF1BUo1KcUITC1SsfiBb08UMg2dZXV9z8UuW+GzVrdIgPYeHNDpuNUDNzKjRPGKtboE7nTbFasAj0gJkSggSAJuoNyJLr5ar9d0ZzkEZ8CAtdh3c0BuszJqmz6OklLBqyReMArabhdS2ONairc213R8Gv9+/8ya72Zjb3pb7EvrBQRBSsVy2eo3ZV0QW8BolqYlam2rVYL4c4klDt/B5fa+n/7t/zgFfxpjGzbsS0sKiuqjPDAwfOXgRh6kmg0x2nL4G6FntorGECYzWIsLm57sLn9h7SfSVYVViYjsbcb5T6qwedDqhcXKb1V9cD/LPpC8hOTVUD9ngP1k+NWrUsvFZ94NvraypWaDZ9iEmPRRlg0GmHqgWzwT8qQzdPRUqiNsAx6W41WI/B31fEoS7OXZLk+M2BnQ/p2Ukw5oSl9gLFP75m1jRoKS5kVh3A69CkHVStYDYa4rISdKhQvFUTCOQ/XbHjEb3irdgSFt1c9FYNk8dB07giMujmraxmE4zD+M2J4pL1SgpiGKqZ/7Sl4bxf7zp4DzNFlJgSFo2uaZxYDIfnTAfZbNQtCxRFAcZnZECazarbkK14wCQaYENd1XXv1FVdzEwRI2aERW2AwexsaJ4+BSS7Vb+qBaQQg3UPDS5lr5MVrWZeTnnmwO7VkV7VLCaERdUKXZ40ODh3GrRjIK3nXKCj3ak0F2hCVYAOB1oMtLarc9LPd+5ezUwRYcSFRcE6zVVFk3a0FeSCoqOoMhw2KFTbABO+XmFQ0I9sU1P919+srrpCswyfkRUW/kU0vZC3qBD8xWMBwvqJym4yQUl6+pCmF0p06BsJhMPOF6rK72yM0FThIyosqlZonFgCFfNnQlAOMmuEQY9Iopo8KhMs/cwFytEgL14ZaC99unL3vYqiDLsFfsSERRmgL3eUWgmqLjGixx1HUVGdDc1aTL0WOCeGvBblSx811l76bv2hYc9BrwoL1RrVH7I6E0xWphpXKQb8CDqJyojnLsCYymO3c081AChMaAp1Z75eXXlDW1tbOjMPiah7LMoAOzLSoXLxHOjUq7kGT0muPduVAnlul1pvlQzNNZGAPPy2tqal6731w2pLjK6w8Ob2NNf4T8vSr786Kot6KhSkuUEURC6qQUAdA7tk2bKhpmrlbp9vyINfoycsJqpD82ZCK40D1Ku/OkLjAEtYL9BkagOMFDQ+cV9H25QPmqovZaZBEzVhUX1VzexSqJ82UYur9ACvYUExTcjMwExQW5SSMzQo3nqn9vB/lvt8k5hpUERFWGJYgrb8HGgqGaPr4FIaBzgGPRVNL5TszTXDhSYbqez0lbxRs/+/hlL9oLuwRIyjOnJOg0MLZkGQ5lfQqQikfkYkquyU2JgJJhGgQP6N2qprv2htHfQUSboKS5AlUFyp4J0zEzppLlAdm2u0DJDGAXIiBf1YA5Lk+UPVnnvwxzqoWeb0ExZ6jbDZAhWl4+HwaBoHqJ+oPDab2mGPO6rIQ17rg6baZVuam2cy04DQRVgUqJsEIzTOKoUGDNZ1ywDxvGkoqglZGVGfCzSZEATB+lrN/pvYywGh3g10cxH9rdMSI63FhVBfigkFnVoPV4LnVOcCTU9TxwFy9IMyxA+b6y4czJjEiP/MqWa9pXA07CubBkFqKdJJVFajCYoy0tX1a5KwZ3HUCSmKa/2hqgGvjBFZYeEN78jwQNXC2RBKceomKir2qLNelsMB2hrxHL0hoWCsdUltIDBGs5ycyAkLb7hkMqnTNnan6letQJyGos2l+UZRVFxW0cMbDua+ULn7m+zlSYmMsJioDp65ANqzM3UVlToTDMZV9MG5qKILheKbmhouxEcTM52Q4QsLL0bdYGh+dZplTzfwOtSnipZuoxp2XrMefajHSHs4mPNadcVVzHRChicsvNkUnzdMGQ8ttMSIqF+3Xxt6xLGeNLAMc5FJztBRuzBLYfuGuspr0Wud9GYPS1hUX9UytgCq50yHsI5DtmgmGPJUNBcob1geeZq6u4p2eb0z2Mt+GbKwqGG5I9MD1bOmQpAyQN36VoG6wlam085FFQNQM09jd1f2G/UV1zBTv6jCwrJzUGUYTdpBq0BUz54OgawM/aZtRHKpDRCzTC6q2ICEEpQl2N3WOq/G58NMrX8G7bGoAlSymKBq/izwFo3WT1Qo3hwU1dh0DzNwYgXqUlPXHSjZ1tF6JjMdhyqsUwVivaDXoKXb6jBYpyYb3aoV8DqpGLNREWjQMSHgDA0qDtuC3e5dbS0Lmek4Buex8IQNk2k9wCnqzVe3SIPnTLFYoTid5gI18QwwBqGfOk2msrPdu6gy4B2rWY9mUDFWW142HC6brlaG6iUqdYmRdDek2mguUC6rWIW609QGOor2tvn6XYRzwB4r6LBD5aIy/URFoL7z3S5Ix2vxYD22oeKwoasrdX97e7+zAvYI64Qei4J1EhWtB9jtcugmKvoABW435Kemck8VJ1D8u8PXsriyn/keTuqxqFqBRtRULC6DjqxhDYw9OSikDBRvoSeVnBYnTqDscJ/fN6O28/jxhycUFtWq0zK41bNKoT13FLPqAF4n1UbTC6XF7CKTnP6h4rA12JV2KOA/bslgVVisuuFI3QErihqmjoO60knqgpM9tkhjt5ihJMODmWB8rAfIOUKPaMrb2+bKsmxTjQxVWJQVori0u4oP1FvBOzoXaksns7lA9amvoi6v1AUm1Uq9QLmo4hEqDvf62+Yc8vmOirP6eiz1zlIR2J49Cg7PnQEhp35tgORGaRxgpsOR1BPMxjtGDOAr/L6SejmYx0wqvTEWOS11PcDUFHWRyU4K1iW9mmtkGONxQx5ei2eA8Q15JL8UNh7qODqAPxK8y7IQtligdsYU6MimmWB0GgeIQsp0pajtgJzEgCpLd/vaZqOT6B3U2iMsg2I2GWl6oaYJxbrFVCQqqvwsxriKeoFyEgOKlSs6fNPq/H43M7EYSxDMTcUFPsoAaaohEkDEwXNSBljkoXGAvA0wkTBgAF/u95YGZLl3+RRVWAG3O3x4/hyXOuZFp5hHXREeReVU1wPkskokKM7qkiRLTchfoFmYsLxj87sl8ykHXgwN1BC5SupanInFIBdVYkJZ/kG/v7fdUBWWoMi6jVEnNeekuiDb5dQMnISEppis6vBN6gngdY2gSVSZKQ61xwI1AnJflbhQf8yDnf7JXgB1mVpdhZVqow57HrAajbwITHBoEuFD/vaxRr//iMfSRgdGFhr/NzYjDWx8LtCkgEqnTllyNrLMUBePRRVmtB6gy5Lc6wEmGzIo5oqAX62B14J3NXeLECikcVkZkO6w8eIvySCv1RQKnEbPI+uxUEj57lStWoGZOMkDrX3YFOhSJ/CInLBQVNmpLihM12Xtak4cQB6rvqtjND2PjLBQVG67DcZ4qA2QTs9JVnzhoAdDoAi0BKOoqO2P5gJVZ4LhZWDSQqMIG7u7c/GpURUWamFobgZVZDEa1SVGXFYrvuSqSnY6pGAqPgzDY6GIqA1QXQ8QM0DuqjjknfzBcBo6GEUVlgADnLuhBxSRiJrMxQyQ5gMlSXFZcYggyPbGzs40rShUBlkUoqfKdDrUFeGpOwwvAjl96TaEncxjDU5YNFSLRteoc4FyUXH6ICgKzesoDzrGcmAGOCErU21Y5qLiHAsGVXJHWLJrwhKEAQmM0snxmemKw2REWWpzrPONb72bCoidobBbLQJXb938gwc///R+3ENDc0RVQf1Q5Enz5rlc7SgpKx5gOFqQ/ScAeKFj7EfOjc/Y8yPvVdRO97oTjWsMGkE4eRKFN29InxvfRPf9hOB33t/+XhsNZ2bP1EfmU/qg7cfrhPGJcXXpvOXqB/3C6y3e19Y4SVZEmgaEHXT0DTYaRMltNvvQiH++YBBRVLIkUT07/U9SFFCV6nvovT2i0fYDSH3O12MjBEHqfR5t+n6OkQa/9GNu1skZ6mcfyHUUxXDUMX3f018VeM/+ns9UaHF8TI8cToQB+H/5uli/c5QiLgAAAABJRU5ErkJggg==;" vertex="1" parent="1">
                    <mxGeometry x="698.89" y="320" width="52.23" height="70" as="geometry"/>
                </mxCell>
                <mxCell id="10" value="" style="edgeStyle=none;html=1;" edge="1" parent="1" source="8" target="3">
                    <mxGeometry relative="1" as="geometry"/>
                </mxCell>
                <mxCell id="8" value="python trigger" style="shape=image;verticalLabelPosition=bottom;labelBackgroundColor=none;verticalAlign=top;aspect=fixed;imageAspect=0;image=data:image/png,iVBORw0KGgoAAAANSUhEUgAAAoAAAAKACAYAAAAMzckjAAAABGdBTUEAALGPC/xhBQAAACBjSFJNAAB6JgAAgIQAAPoAAACA6AAAdTAAAOpgAAA6mAAAF3CculE8AAAABmJLR0QA/wD/AP+gvaeTAAAAB3RJTUUH4QgLDxIYlnkB/wAAasJJREFUeNrt3XmclnW9//H357rvYQYQ3FJzS7PMBZcUBAbUUBCPmeYSaK5pnixTW34dl2yZzumYu5Zl5cms9NQJUlNcykwpgWFYVETQcl9yX0EEZua+Pr8/BgFlu2fm2q/X6/HokcA937nmmu/9/T7v3URElEpug//frRtbJdy4QeH6HoQDZeqnMGhy0wZm3iRXXzdtYK5Gl/eX2cCu/7YBUriepIZlgzVJ6vu+b9B32d8v+3aSS/1Manzfcbwpma/4o78tU8dKF1gi2eKVLt8paaGZlnioRZLeknyhzBa5fJGZv+mut022yCxY5Kq9EViwqHNpx6KOsGnhA1cc/ia/eyJKO+MUEFEU7faNP/fvFyz6kALbTIE2lWtjSRvLfSOXNpaCrj8r3Kjr/7VxL/AY0cU9op/eu/PXHZJekfwVSS/K7RUL9IrLX5bbS+56JXB7JXB7cemAPq/MbjnkHWYXEQFAIkq8oefeuHElDLaoVWofCty2kNmWHmprM9vCFG4dyraUtMG6fRQFuHKNv54cyyJJz0t6SrKnTP60ZE/Jw6cqFj459aKjX3jPPZhERACQiOpt8Ddv2LyxVt3eg3B7yT7qpu3l9lEp3F5Svx7zBfxF+zOt+tVLTXpa8qclPeWupyQ9WamFjzQOXPLw5JaTljC7iQgAEpW4QS0T+gxo77uLPNxV8o9J9lHJt5e0vaT1eoIT8Jce/t4zzuqHqkn+hMkekvRwKD3ksoc/sGS9h++48pNLuUYQAUAiKlj7nDthk3Zr/Ljcdze33WW+u6QdteKFE73GCfjLNP7WVk2mxxXaQx6ED5vb/WEtnDHzss8+yzWHCAASUU4a9s2bNws8aFZQG+bSx+XaTdIWPTcG+Csw/tZ2PM9LmiGpTWZtVTXNmnrRpxdyDSMCgESUdi0tQXPt44PUqRGh2QiTRkj66CoSSBV/MWML/MWBv9VVM+lhmdoUWptVbHpr3/nz1NISckUkAoBEFGODWib0GdDZMMJqtq8H1ixXs6T117qJgz/wF9/xvOrudwcK7gpld824ZPyTXEuJACARRdBe59y6XVAJx5j7GEljVwUf+AN/qeDvfV/mkukJuabKbUq14rdOveizz3MNJgKARFRHI8+6eUBYCUa7hWNNOtCl7Xq0iYM/8Jck/lYtlPSA3O80sz9Ov+ToGbxHIREAJKKVGtwy6QMN7bXDXPYZk/ZX3a/OBX/gL5P4W13PutsfA/Mbt366cu/EieNrXPOJACBR6Rp67o0bVyw42M3GyXVg99EH/sBfbvD3/l6XdJvJJ264dIM7eR9CIgBIVOgGt0z6QJ+O8OjQNc6kvSUFkW7i4A/8ZR9/7x/0LUk3m+za6Zcc/TceJiYCgETFqKUlGN758f3NgxPc9RnJ+8YCE/AH/vKHv/f/xbMu+63U8fMZl5zAK4qJACBR/mo+b9KW7n6cpFMlfTjWjRP8gb/842/lQkl3e+jX1QYO/MPslkPeYUUhAoBE2a2lJRjeMfhguZ8habTe8xAv+AN/4K/ucVZc5HVJ14Wh/2jm5cc+wSJDBACJMtNBZ9ze+OaA2lEuP1vSzonBBPyBv2Ljb+VCk92uoHbB9IuPm8qqQwQAiVJrn3Nv36TDOk+WdKakLRKFCfgDf+XB3/svNNtdP9rm2Yb/5e1kiAAgUWKNbLl5i1q7nSfpZElNiWAA/IE/8Pf+Cz1qrsubBrZfO7nlpCWsTEQAkCiWmlv+tJF3tp+lUGdK6psYBsAf+AN/a7vQc5L+q++ALX45uWW/TlYqIgBIFEm7fePP/fv1WXq6m84x1waJYgD8gT/wV++F/uGu82cMfPR6tbSErFxEAJCoR40bN6HyzA59v2juLZI+EOFGBf7AH/iLFn8rN1uBf7Pt4uPuZBUjAoBE3WrYebcMN+knkvaMcaMCf+AP/MV3ju+2WuX06Vcc/TArGhEAJFpre59z64adlbBF0ul69338wB/4A395w9+7dcj9p32X9Dlv8lXj32aFIwKARKvU/M2bT3aziyVtlMJGBf7AH/iL73iedNeZMy477lZWOiIASCSp6/38OoPO/3Hp0xnYqMAf+AN/UR+PL9/obg3MTp926bFPs/IRAUAqcc3fuvnf5MEvXb45+AN/4K+4+FuphTL7Rtulx17NCkgEAKlk7faNP/fv17j0CkmnZGajAn/gD/wld30y/7+ltc4vPXDFSW+yIhIAJCpBe533x60rCm6SNBj8gT/wV0L8rdj4njEPTmi9/Ji/sTISACQqcMO+efMBZvY7SRuDP/AH/sqLv5WquXRBv4FbtvBJIgQAiYqIv/Nu+cKy9/argj/wB/7A3/u+8C8NfYKjplxw7BuslgQAiQrQuHETKs9+rPGnkv17uhsV+KvjoMAf+Evv+uR6NAgqh7ZeeswjrJwEAIly3KCWCX0GdDZdJ9d48Af+wB/4q+NYFpp03PTLjr+FFZTKUMApoKI1qmXCegM6mm4Ff+AP/IG/bhzLAJduHP71677OKkplqMIpoCI18qybB3So4S+SPgH+wB/4A3/dPJZA0oFbDz+iz3PTb7qbFZWKHA8BU2Fq/tqEvt6v6XZJo8Af+AN/4K83x+LST2cMfPx0tbSErK4EAIky2uAv/LyhYZPNb5T0KfAH/sAf+IvoWK7vO3Crk3ibGCpiPAeQ8l9LS9CwyebXgT/wB/7AX8THctzihc9dN27cBJ4uRQCQKGs1dw5ukXQU+AN/4A/8RX4srqOf2XLpLyXnETMqVNyqoXzj71uTDnP3n2h1T2cAf+AP/IG/KA7FfPcthz9Y/RcvDCEASJQB/H37j7u6222SGsEf+AN/4C8W/C0bx0z7bj38sNefm/7HGay+VIS4S5vyib+uV/zOlrQT+AN/4A/8xYm/lQpN9tnplx8/gVWY8h7PAaR81rfxYvAH/sAf+EsQf5IUuPxXw7963Z4swpT3uAeQctewb958gJn9eZX5C/7AH/gDf/Hhb+We8nYfMuMnJ77Gikx5jXsAKVeNapmwnkm/BH9Fxp+DP/CXZfxJ0rZBH/uVWlrYQwkAEiXRks6mb8lsK/BXZPxFMTz4A3+x4e/di39q+ILtzmVVprzGQ8CUm4Z9a9L25j5XK7/qF/yBP/AH/hLG30p1hmEwYuYPj5vJCk15i3sAKT+T1XU5+AN/4A/8ZQR/klStVMJfHnTGjxpZoSlvVTkFlIeGnXfLcJcfXGD8uUyPuDRf0j899Gcs0JtmwSIPVXMP+5tsQ5c2N9OOCvUxmXbr+XUY/IE/8BfFDSp37fJ6dYMWSTwcTLmKh4ApJwC8+U8mO7Bg+Fsg+Q3muqNqnZPv/cH4V7oz4sizbh7QWenYRx6MVddH4X0Q/IE/8Jcc/lYarBaGYfPMH57EQ8EEAImiqvm8SUNd3lYg/M00syu0uP2m1svHL47iSMeNm1B5druGsW46XfKD1nzdBn/gD/zF9FSK6W2XnzBCsqgGJgKAVHYA3vIbl47PO/5capX5d9vOP+IvsZ6vc/6wR6jgu5I+Df7AH/hLBH/v7qjHt1124vWs2gQAiXrZPufevklH0PmMXE05xt8bbvpeW585V6qlJUzq3A0958b9TfqJpB3BH/gDf0riRVT/6ru0746Trxr/Nqs3ZT1eBUyZrj3oPDHP+DPpzqDDd2w7//AfJok/SZpxwRF3B0s795SH/wP+wB/4S+Qcb7mkafE3WLkpD3EPIGW64efdMkuuwTnEn0v6zvTGOecnDb/VNfTsG44x0y8k9QV/4A/8xXqO3+zss2Tb2Ree+hYrOGU57gGkzDbiWzd9JKf46zTzU6b/4PDvZwF/kjTjwiN/a+b7SXoV/KWMPwd/BcafJG3Q0N54Bis4AUCini61YfWIHOKvPbTwsNbzj/hl1s7n9B98pq0W2KoIBH/J4i+JOQz+0sJf1yXdvjrqtAnrsYoTACTq0XLrB+QMf6Gbnzjj/CNvy+o5nXX+EQ8FYXCwpLfBH/gDfzEcT9dFN17cZ8kprOIEAIm62UFn3N4oae8c4U9uOqvt/CP+L+vntvWiw2fI/Ci5QvAH/sBf5Phb9t9+quQ8z54AIFF3er1/uItW+4KFzL7Vy61t5x92WV7Ob9sPPnO7m/0A/IE/8BcD/iTJtOPwr/7qE6zmBACJupP5bjnC3zNVbzghb58A0K9pwxa5poI/8Af+Isbfir/+Ios5AUCi7kxM0+45wZ9M+sqUCz71Rt7O8eSW/TpVqX1BUgf4A3/gL1r8SS6XHTb47J+vz4pOAJCo/jV1t1zgz+221h8c/se8nue2H4yfL7crwB/4A3/R4m/ZjcPG6pKmQ1jRCQAS1V24fdbxJ8nDwL6Z9zPdECz+gaQF4A/8gb/o8Lf8T+bjWc8JABLVnW2ccfxJrlvbzv/0g3k/01MuOPYNSVeBP/AH/qLF37LGjjzrmgGs6QQAidZR89cm9JW8b6bxJynw4JLCnPRKwxVa/lxA8Af+wF9E+JNJjR1Lq7wamAAg0TonZUPjhlnHn6THp1146L1FOedt53/6JZf+BP7AX7nw57HibzkCg7W9qT0RACSSJIUNQQRvnhrzZuW6Lm9v+7LOzK8Df+CvXPiL4uJ1jTOGlZ0AING6HNLQ0dG7ERLYrIJwUtHOe78mv0N1PQwM/sAf+OvWOK6d9v7S/24oIgBItObWf63prYxvVm9M7zP3gaKd98kt4992aSb4A3/gL0L8Lbtd29GnfQirOwFAorV0x5WfXJrlzcrl96qlJSzmgmCTwR/4A3+R4q9LgGZDWd0JABJFXlL4k9yCuUU9i6E0D/yBP/AXLf6WXbd2Yp0mAEgU6WqdHP4kydz/UdgFIdQj4A/8ZQJ/Xhz8dS0c9mGWdQKARJGt2Mnir+umvD9Z1JO+pCN4AvyBv0zgL66fKQ38dd1wBIAEAIli2TiTwJ+kWkVvFvWMPrDBnAUrfmTwB/7AX4S/7w+Oarm2iXWbACBRr1budPAnSdXQ3i7sWe96ccsi8Af+wF/kv297+41wG5Z2AoBEPV6908OfJFml2lHwU78U/IE/8Bf977sa2NYs7QQAiTK8Wa3tX2thR/+Cn+QB4A/8gb8Yft9h0I81nAAgUbeX5fTxJ0mB+XpFPekHnXF7o6Q+4A/8gb84ft9hX5Z2AoBEvdmdUsKfXFIt2KyoJ/3lfm9vVhz8OfgDfxnCnyQzAEgAkKj+1TND+JPLg3CHop70Bqt8rDj4i+LLwB/4i+54QvdGlnYCgER1raDZwp8kmVthAejuO4A/8Af+Yjierjukl7C0EwAkWnuWRfx1IUlDC3zWh4E/8Af+YsCfpCCwhSztBACJ1r6QhlnE3zIkfXzvc27dsJin3fcDf+AP/EWPP0mqhfYWazsBQKLY95wY8LfsetNp7fsV7TQ3n/uHHeXaCvyBP/AXPf66Vg5/jQWdACBRPvH37r8fXbRTHYb6LPgDf+AvJvxJslroIgKAROtYVbOKv65/PaRwDwO7fzaK8wv+wB/4YwEnAEiUMP/ix9+ymjps6YlFOd3DzppwgKTtwR/4A3/gjwAgUe7UmBD+ll3e/t+yT84owJmz88Af+AN/4I8AIFHahZnGX1dbvdZ/yUl5P9F7nX3DviZ9AvyBP/AH/ggAEuWoVPAnSTLp+4P/36QP5PXMjRs3oWIeXgH+wB/4A38EAImyr7oM4G9ZG1f7dHw/ryf52W3tNJP2AH/gD/yBPwKARDnxYer4e3ecLww/94ZD83YGh577fx9z03+DP/AH/sAfAUCinOCvl5eICn9dg5lL144474Zt8nIGR7Vc22S1YIKkAeAP/IG/JPCHFgkAEtWzVIY5wd+7/7dRLdQfRp5184DMn9yWlmDJ4vV+I9nu4A/8gT/wRwCQKPsszCL+VvxxSKd13pz1t4YZtniXy9w1DvyBP/AH/ggAEmUq68EOlyr+Vhz4fq/3X3zD4JZJ/TJ3UltagmFn/+EKuX8F/IE/8Af+CAASZTHPHf5WdHB1SftdQ8+9ceOsnMxBLRP6DHtn0PXgD/yBP/BHBAApXw7MB/7erdlqfn/z2RNHpH0GB5894UPrvWOTJX0W/IE/8Af+iAAgZVx+ucVf10VNW4cKJg8764ZzB3/h5w0pnEIbdvYfjqu6zZHUDP7AH/gDf0QAkLKdeX22yyr+VtQg0/nVDTd5YPg5E0cldfr2OvsPg4b9xx/ulvt1kjYAf+AP/IE/opWrcgooj+UEfyv/w87uds+ws/4w1UwXTr/wM5PiOC9DvnHjLpUgPEvun5Wt7foN/sAf+AN/BACJsie8ni/7mcPfSv9oGunSLcPO/sMck37TUbHfzT7/yBd6c4SDz56wfjUMjnTzE0y1fSVZMhsV+AN/4A/8EQAkipqARcPfe9vdpUurNb9o2Nk3PCD3u810bxBW5m/5VMdTEyeOr61ptL3O+93WlVqfHcIwHGnm+8ttuMz7WKIbFfgDf+AP+BEAJEpLhPnE38pVJB8s02CX/qMW1PTMdkH7sLP/8C/JXnfT2+ZhTdL6kgZK2kKd6u8KZSbJLZ6fCfyBP/AH/ggAEoG/WPC3pvpI+rDkH17ra2FS2azAH/gDf+CPihCvAqbMm69k+KtvDPAH/sAf+CMCgFR4BYI/8Af+wB/4IwKAVPTqfSNA8Af+wB/4A39EAJAKkWsd/gN/4A/8gT/wRwQAqVQ6BH/gD/yBv5zhD0QSACTq+WoJ/sAf+AN/ecQf/iMASFTXgungD/yBP/AH/ogAIJXag+AP/IE/8Af+iAAgFTxz8Af+wB/4A39EAJDKlYM/8Af+wB/4IwKAVEoCgj/wB/7AH/gjAoBUisyjXEXBH/jr7kUc/IE/8EcAkCi/gT/w1xP8xXAs4A/8EQFAonUtpe5RjAL+wB/4A39ZuD5hQwKARMnufOAP/IE/8Af+iAAgYUfwB/7AH/gDfwQAiTJoOI9KGeAP/IE/8Af+iAAg5SKzHqyd4A/8gT/wB/6IACCVKPAH/sAf+AN/RACQ8s05i0x04A/8gT/wB/6IACDlIav7OYDgD/yBP/AH/ogAIJUo8Af+wB/4A39EAJAKlEW33II/8Af+wF/q+IOIBACJklMV+AN/4A/8gT8iAEgFdiH4A3/gD/yBPyIASEWTHvgDf+AP/IE/oiiqcgootx7M2kYF/sAf+AN/4I9yEvcAUg7EB/7AH/gDf+CPCABSiQAI/sAf+AN/4I8IAFL5DAj+wB/4A3/gjwgAEvoDf+AP/IE/8EcEAKl4/uvlmgv+wB/4A3/gjwgAUgGNCP7AH/gDf+CPCABSYbJ1rargD/yBP/AH/ogAIBUrX9tDwGluVOAP/IE/8Af+CAASJS7DHGxU4A/8gT/wRwQAiXqQOfgDf+AP/BUGf5iRMhYfBUeZrO2CI3fnLFASDf36dbub7AHwB/7AH5Up7gEkIgJ/4A/8EQAkIiLwB/6ixR8SJABIRAT+wB/4IwKARETgD/yBPyIASEQE/sAf+CMCgERE4A/8gT8iAEhEBP7AH/gjAoBEROAP/IE/IgBIRAT+wB/4I1oenwRCRBQL/jydYwF/4I+ojrgHkIgI/IE/8EcAkIgI/IE/8Af+CAASEYE/8Af+wB8BQCIi8Af+wB8RACQiKqkdwR/4IwKARETgD/yBP6IMx9vAEBGBP/CXU/z5IwePi2fkWto/mUnBepIvlKsm6XVVKi9pcccztvudi1iAACAREfgDf+XEn8v0T02I/NjcJVnUV5hunkZb9cK1mtTH5A8fuEDSc5LmSXa/gvABdVbvt0G3v8jiBACJiMAf+MsY/jrimpD5GC+6oQdK2rnrfz5OoUlWk88/8AVJ98l9sszu1k7ND5i1hCxaAJCICPyBv5Tw5/mY4B75FSbCH3+dc3RzSQfL7GBJ0sOtr/n8sXfIgpu0qOFPNmTSOyxiADAT7faNP/cfWO3oI/cBS6292hAEAztr7m6+UJKqTbU3W1vGv86ZIgJ/4A/8gb9un9qNJTtO7sepX/s7Pu/AOxT4r/Vi+x223+TOsi9pJoqlg864vfGtAUt3qrl9VGZbmocfkmwLSVtL2krSFpIaerpYeF0XSGHxysVGlexmlcxGleDv2xM+v5EMy/v8gb8s4C/8+IwrvzgnMmK5TP/8ZJjEec8h/tY21ktyv15V+4XtcOcjZXUK9wBG0G7f+HP//g1Lh7iFwyXt5dIub3j7R+RWtWXX0vqtDf7AH/gDf+CvePjLamXC3/I2k9n/U01f9/lj/yrTj7Tjnbeales9fgBgDxrcMqlfnyXhvm46QIH2ky/Z1eXLz6XFuFGBvyzgzyMaCvyBP/AH/sBfcvhb5QtN0hi5xujhsQ/6PF2knUf8riwvHAGAdTbivNu2CdV5pNw/qfZwbw/UuNoNAvyBP/AH/sAf+AN/Wcff+/95N0nXa/6083z+gRdop+briw5BALiWhp9z07Zulc+Y+WdC7xzadWvBYpj04A/8gT/wB/7AH/hLBX/vbSe5/1rzW7/qcw84x3b9y50AsCQddMbtjW8O7DjUQ31BptEmt3gnPfgDf+AP/IE/8Af+UsPfai/ieyiwP/v8sbfKgjNspz89BQAL2l7fvmVQpRae+oY6jpNrw3W/ZgP8gT/wB/7AH/gDf8XD33v+/VPycLTPG3uR+rVfYB+evAQAFqRh503a2xSerZofLJklN+nBH/gDf+AP/JUGf1F/ulqW8JepdT9C/K2or+Tf1TsNR/m8A0+0QX+eAQDzWktL0Lx08KGh1c4yD5uTv8UD/sAf+AN/4K9U+Eu1mPHnWZijcf5Oll94Rymc6vMPuFS+wXds0MT2PFMoKJv9hn/rj2OGd+wxyy28yWTgD/yBP/AH/sAf+AN/9V64KtfZ0pvTff7YXfLsodLcAzj0vJuHVEJd6KH27/WkAn/gD/yBP/AH/sBf2fC3cnvIfabPP+AM2/kvvwCAGWzvsyd9qDPwi+Q+3q2nz8AAf+AP/IE/8Af+wB/4e09Ncv2PPzRmL9mGZ+TtIeHiPgTc0hIMO++WL3RWwodkfpQE/sAf+AN/4A/8gT/wF/UeaV+Q3pzm8/ffBgCm3NCzJ+0+vH3PVnP/uaQBkUxS8Af+wB/4A3/gL/P4E/hLFH/L/3uwwkqbzztwaF6sVKiHgJu/NqGvNzV+Xxae2fufDfyBP/AH/sAf+Msb/qI8CPDXzTaTh3f73DFH2a533ZZ1MxXmHsDh37p1J+/X2CrT18Ef+AN/4C9T1yfwB/7AX7Hwt+aL91dgN/tDY/4dACZQ8zcnnaCwNkuu3SOd9OAP/IE/8BfL9Qn8lQ9/MQsR/GUBf+/+LiqSfu5zx7Rk2U65fgh48NkT1m8Imn7uCo/K00YF/sAf+AN/4A/8ZRN/UR96yfC34gIm03f9oTGNtstd52bRULm9B3DEN2/7eEOlae6yV/iCP/AH/sAf+AN/4C/KnzutNTL/+Fu5c7J6T2AuATjs3EmfDFX7m+Rbgz/wB/7AH/gDf6XEX/SaTAZ/nubvJFH8dWX6rs8dcx4A7C3+vnnzV8x8kuQDwR/4A3/gD/yBP/AH/jKLvxUI/L4/dMDZWfqN5+Y5gINaJvQZ0N70c0mfixQD4A/8gT/wB/7AH/iL/9DLir8Vl/2Bzz3gLdv1Lz/Lwm89F/cAjjzr5gEDljb9GfyBP/AH/sqJPwd/4C8n+IvyRR9Fwp8kyRT4j/2hsYcAwDoafPaE9Tur9meZRoE/8Af+wF858ZfC5gf+wB/4i/53HaoiD//X547eDQCupb3PuXXDhkrTnSY1gz/wB/7AH/gDf+AP/OUWfyu+bIBkt/sD+28JAFfTiJYbN+0MwsmShoI/8Af+wB/4A3/grwz4i/p0ZwR/q7alKsHNPmdsfwC4UiPPunmLsL36N0m7gT/wB/7AH/gDf+CvLPjzCE93hvC32i/1wQpqvwCAyxrWcvvAWoPdLmlH8Af+wB/4A3/gD/yBvwLi793/ONofHH1q6QE4qGVCH2vvvLHrM33BH/gDf+AP/IE/8Af+Yh4rPfx1ZbrC543Zo7wAbGkJBrT3vV7SaPAH/sAf+AN/4A/8gb/YT3na+OuqSaH/3h8ZOaCUAGxuH3yZ5OPAH/gDf+AP/IE/8Af+Yr8OZAN/77a9OpquLh0Ah5076RyXfwX8gT/wB/7AH/gDf0p+noO/NPH3bkf7g/t/rjQAbD530mFmfj74A3/gD/yBP/AH/pSx6y74Swh/XZn90OeO3brwAGw+5+aPuulXkhv4A3/gD/yBP/BXXPwlCUjwl8qvwSP5hgOlMJHPCk4NgM1fm9DXKzZBCtcHf+AP/IE/8FdS/Dn4A39Zwp9H+GP19CT5J/2h/T9bWAB636ar5L5HdiY7+AN/4A/8gb/E8ZfG9Qn8gb/M4u/dL7cf+ZyxmxYOgMPOu+U0yT8H/sAf+AN/4A/8gT/wB/5W6QOy2qWFAmDzeZOGmvtl4A/8gT/wB/7AX2nwF6sFwV928Bfpr/Q4f3C/TxYCgINbJvVzD6+X1Aj+wF+58efgD/yBP/AH/lK7DsSFP4/wkFySXemPHtQYx8xJFIDVpeF/S9oe/IE/8JeVjQr8gT/wl1/8RX34BcNfXG/3khj+JEnbafGS03INwBHnTmo20xngD/yBP/AH/sAf+AN/4G+d+FuWfdsfHr1xLgE4uGVSv9DCX0uqgD/wB/7AH/gDf+AvB/hL/fcC/pa1oTr8W7kEYO8f+gV/4A/8gT/wB/7AX6L48zR/L2XE31r7sj8w+mO5AmDvH/oFf+AP/IE/8Af+wF+iegR/KeBvreM1KPALcgPAQS0T+tQsvFY9fugX/IE/8Af+wB/4A3/gr9T4e7fDfc7ofXIBwPXaG88waQfwB/7AH/gDf+AP/OXbheAvVfx1ZeF3Mg/A5pYJG5nsm+AP/IE/8Af+wB/4y4HywF+28dclwDE+d/8RmQagtzd+X/KNwB/4A3/gD/yBP/AH/sBfb/G3/MvOziwAh3/rxp0k/Tv4A3/gD/yBP/AH/sAf+IsIf10d4nP23zOTAPSwcrmkKvgDf+AP/IE/8Af+ioa/qE95RvAX53ge6Xgm+VmZA2Dzubd8yqQDwR/4A3/gD/yBP/BXRPx5hKc8Q/jzXOBvGQHtMz5nvx16M0SkABw3bkLFzS8Gf+AP/IE/8Af+wF8W1Aj+Coe/riq9fS5gpAB8bvs+R0nasdz4c/AH/sAf+AN/4K98+ItzLPD3vrFdMh3n9x2wRQYA6OZu54C/KC4O/sAf+AN/4A/85Qx/qT2fsIT466pBlY6TUgdg83k3HybTruAP/IE/8Af+wB/4A3/xX7dLjb9l2ak+YVyPPm0tiO6Y7FzwB/7AH/gDf+AP/IE/8JcE/iRJW2uHVw9ODYDN59z8b5L2An/gD/yBP/AH/sAf+AN/ieDv3b6UGgAV6JtZumKBP/AH/sAf+AN/4K+o+Iv6NOUaf5J0oN+/7/aJA3D4t24a5dI+4A/8gT/wB/7AH/gDf/HjL8pP+cg9/iTJZJVTEgegPDgb/IE/8Af+wB/4A3/gr3T4i3M878Z4ps/7k6OaEgPgiG/d9BG5xoI/8Af+wB/4A3/gb+2FHV5L04TgL4b57BnAX1cb6y07NDEAhh58Yc1jZAR/Dv7AH/gDf2XFnwv8Zef65A3BYvCXBfxFfa5Tx98y0fnRiQBwUMuEPgr1uczjL0kMgD/wB/7AX6bwl5XrE/iTpD4d4RLwl+beEOHxZQ1/kuT2Sb9/1AaxA3Bge5/PyLQp+AN/4A/8gT/wB/7qqG9DfPcA5hV/ntRcLjj+umpURYfFDsBQdir4A3/gD/yBP/AH/uqrfVEtnnsAwR/4Wz6O1f0wcI8AOPxbN+5kq7z1C/gDf+AP/IE/8Af+1tTsLV6I9yFg8JcQ/qL+VUQ68GifM3bT2ACoWvWLkgz8gT/wB/7AH/gDf3XVrpaWMA3Hgb8Mv9efR/58yaq09MhYADi4ZVI/Nz8B/IE/8Af+wB/4A391f3lG7v0DfwXG37L/t8/GAsBqe3iESRuAP/AH/sAf+AN/4K/u69Nr4A/8xY8/Sa69/b79t4kcgCYdA/7AH/gDf+AP/IG/+r/cXM+DP/CXAP66qGbhpyIF4D7n3r6JpDHgD/yBP/AH/sAf+Kv3y10epAlA8JcZ/MX5u135ME0HRQrAzqDjKMkbwB/4A3/gD/yBP/BX/x5l7i+AP/AX7b1/vrbD3N+nNfeNDIDu/lnwB/7AH/gDf+AP/HVzj3J7MXrcjQtKib84xysG/iSpr/o3fiISADafN2lLSc3gD/yBP/AH/sAf+OveHuXm/4rcf4+9XU1uec4Q/hz81XWY7gdFAsDQa4fp3ff+A3/gD/yBP/AH/sBf3XuUWSX6h4DfqVV7/LOAv5zir1uH+alIAGi+7PPlwB/4A3/gD/yBP/DXrT3K1fl05ADoV6mAv7Lhrzt7tG3n9++7fa8A2NwyYSOZRoE/8Af+srBZOfgDf+AvR/iTtHiblzd9PHIA1jrXi2/ugr984+9d5VUO6hUAw6UNB8tVjWsCgT/wB/4S/F2DP/AH/pLEn1z28MSJ42vRAzDYMJ7fTxynEfylskev5XmAdQHQZAeDP/AH/sAf+AN/4K/7e5SZz40FXYGvHx/+PMKLgr8U9+hRa3o7mHUCcNy4CRVJB4A/8Af+wB/4A3/gr/t7lLk/pHjaCPyBv3XUpKamoT0C4DPbVZtXTDLwB/7AH/gDf+AP/HVnnFCKB4BuG4K/EuCvt1U0skcAtCA4KOoDBn8ZwZ8L/IE/8Af+wF+M+JOkoFKLCYDh1tnFX9TTrsT46/XQYc8AKPm/gb+C4i+tWyfgD/yBP/BXEvxJ+lfblWc+FwuUzLbMLv6i/Ig38NfL4Ua4r+q9tQKwuWXCRpJ9HPyBP/AH/sAf+AN/3R/HpHsUV66twV8a+2iO8Nc1yAaau++gbgHQlzaOUn33EoI/8Af+wB/4A3/g7/1favpbbAA02wr8xfv7KwD+ugqDkd0CoBTuB/7AH/gDf+AP/IG/no1TcZ8cGwDlWxUXf1FP6RLjr+vPqwBwHW/ubPuDP/AH/sAf+AN/4K8n2XOtV532WCyumTO2v6QPpH9diAt/UT7vr+z4k+Ta+/1/tcZ7AId98+bNJO0E/sAf+AN/4A/8gb8e8E8x3vtXCXaWZIlcFzyp+Qz+YsKfJG3rc0ZtVRcAzTXyPZML/IE/8Af+wB/4A3/dGMb/Eh8Aa4PAH/irE3/L/vu9bwezlucArv59Y8Af+AN/4A/8gT/wt86W1jqrN8cGQNkg8Bfj1b1o+Osi3171AdBtBPhLGn8u8Af+wB/4A3+5x5/cwj/PvvrUt2Lzn2sQ+FvbEBGCrRD4k+S++zoBeNAZtzfKtAf4Sxp/yWxU4A/8gT/wB/5i3qPCYKLizLUL+AN/3Rxk3QB8vd+SvSQ1gj/wB/7AH/gDf+Cv24MtDWuVSbHZ75FDB0jaCvyBv26e0k181j6brxWAqtgw8Af+wB/4A3/gD/z1aLA/xfrwb7hkD63xRZrgL5uljr+urLL7WgFobnuCP/AH/sAf+AN/4K8Hx2L+65g1sQ/4U44+3zcj+JOkSrh2AEoaAv7AH/gDf+AP/IG/buPvmX6bvBrbw7/Lvt1I8Af+enRK3dYMwFEtE9aT/KPgD/yBP/AH/sAf+OvmsYTBVZNbWjpjs5+3BJKaM4+/2NdD8NfDsdcMwPbFjXtqHZ8RDP7AH/gDf+AP/IG/VcZYWnW7VnE2r3VXSRtkHn8O/jKIP0nawac1910tAD0I9wR/4A/8gT/wB/7AX/eOxaTfTfvZl16OFYAK9wZ/Wcdf1IfpUY5dUWNl59UDUL4b+AN/4G+l/wR/4K+U+HOBv+4JpxYGP1Ls2d7gLycf8ZY9/HV9YSXYfbUANNmu4A/8gb8UNyrwB/4ygb8YjqW4+JNJN8362Zfuj99/738BCPgDf909NttlVQC2tAQu7QT+wB/4A3/gD/yBv7qPJZTb9+K2n887cJCkreObHuCv8Pjr+u+PrALA5iV7bCepP/gDf+AP/IE/8Af+6j6W69t+etqDcQNQFh4cz3Uc/GULf1H/it7/hbYqAGXhLuAP/IE/8Af+wB/4q/tYOmqV2n8qidwOBn9lwJ/HiD9J8u3cZcF7z4kPAn/gD/yBP/AH/sBffWO4+dWzrzzz8djt9+DBG0oaAf4yir84x4v+etRXc/bfovrev7MdwR/4A3/gr4z489xdn8BfBvaolxrD4NtKoqDjUEnVaPEX9akpMf7i2q/juh5Zbbv3PQSs7cEf+AN/4A/8gT/wV9d9wV+Z8tPT3kgEgKajosdflB/xBv6yg786CsOPBO/7XtuDP/AH/sAf+AN/4G+d/WnmVV/+fRL263r410cXGn9xjlc6/NXxPBe3FQBsbpmwkaSNwB/4A3/gD/yBP/C31t5xty8rqaodR0jqU2j8edRzE/yt4zyvAGDYUfkY+AN/4A/8gT/wB/7W2dkzf3raE4kB0MNjs4m/qKcS+EsGf5JkH13xELAHHwV/4A/8gT/wB/7A35oz6cYZV532k8Ts9+CY7SQblfiakdR+DP5SwJ8kacWLQDzUR8Af+AN/ZcKfC/yBP/DXjTHMnwmWNv67ZHHeH/beKvb5Lnem9PsHf0XEnyRtvByAZr4N+AN/4K9M+Iv5WMAf+CsS/qQOSUe3XnPK60nZz+8ZVZX0OfAH/iLGn6SVPgnEZB8Cf+AP/IE/8Af+wN9q+/qMn5zeqiTbrM+nJG1RXPxFbTXw151/XvEiEGlb8Af+wB/4A3/gD/yt0s9mXPXlHyvpPPx6sfEXIdjyiL84x6vj2y0DoJtcW4E/8Af+wB/4A3/gb+WL2q3bvLLJ6Ynb7+GxgyXbB/wVGH9xXZfqHDeQpJFn3bK5SY3gD/yBP/AH/sAf+FverCX9Fx09ceL4WtIAVKivgz/wFxf+lgOwVvGtwR/4A3/gD/yBP/C3vIerYXDwg5f8x6Kk7edzx24t+Tjwl/iZLw3+JKkqSaHXtrA6XmUO/sAf+AN/4A/8FR1/Jj3S2VkdPePqU19OxSGBnyepAfyta+woxysX/iTvugcw8OCD4A/8gT/wB/7AH/jTI52d1f1nX33qC2nYz+fvv42kk8Af+IsTf9Kyh4A98A8mccUCf+AP/IE/8Af+soo/SQ+2V2r7poW/rsOtfFfv/9zfxH7/4K8s+FsOQIXaHPyBP/AH/sAf+Cst/szvbu/T/on7rzzzldTsN/+A7SUdn9jv38uOv6gPMz/4k5Y9B9BMm3vcZwv8gT/wl3/8eQrnGPyBv5iPxaRfvf3ypqfOmzi+XWnmdrHkVfCXFP68tPhbDkA3+2D3Tiz4A3/gD/yBP/CXe/y5S9+dcdWX/0sp5/MOGC35p8Ef+EsCf8sBKPdNwB/4A3/gD/yBvxLh7y2XTp551ZdvTB1/XZ/5ezn4A39J4W8FAOUfUF1vAwP+wB/4A3/gD/zlG38u3RdWauNnX3nm48pCm/Y5TfJdwR/4i+VnXUN20Bm3N77ef8kS8Af+wB/4A3/gr/D4M7/6jSA887Erz1yaBfv5nIO2UrXzIUnrg7884W8NA3ma60P3Llxd0LdjY/BXFPxlaaMCf+AP/IG/TOHv2dDt1FlXffkOZalq59XgD/wljT9JqobmG4M/8Af+wB/4A38FxZ/L7fpKe5+vzrjmlNezZD+fP/bzcj8I/CWEvzjHyxn+JKnqawUg+AN/4A/8gT/wl1v8PebmX5x51Zf/qozljxywhWp+cawfjQv+lMgbPecQf3IpkPlG4A/8gT/wB/7AX4Hwt0DS2a9XarvM/Mnp2cOftwSq2a/l2jC5eQ3+soW/qK9u3d9fqi6tD/7AH/gDf+AP/BUAfy636938rJlXfflFZbX5074j9zG5w1+c45UOf1G+3UvP9peqSQMc/IE/8Af+wB/4yy/+XG63hW7fmfWzL92vDOcPHbifFH4rl/jzqOcn+EsLf5JUVWgDZQ7+wB/4A3/gD/zlDn8m3SW3c9p+etpsZTyfN+qD8vB/5aokh7+opxP4KwL+pK5XAa9n4A/8gT/wB/7AXyz4i+FnMm+X2/+5dPmMq778gHKQPzmqSYsbbpBr82TxF+Xz/sBfdvDX+29bNdkAKQR/4A/8gT/wB/6yjr9X5XZ1rbP649lXn/qCcpK7TPP7XCP3EeAP/GVlPa5KPhD8gT/wB/7AH/jLKP5Cc2uV9Jugacl1rZd/fbHy1vwDLpH7MeAP/CW+HvvaAOi+Xl0fAwz+wB/4A3/gD/wldH0y+SMu/V5B+Ou2H5/xpHKazzvgVLm+nl/8RX1CwF8W8NcFQLN+vVvEwB/4A3/gD/yBv0iuT4+5aaIFwe/brvziHOU8nzf2WMl/km/8RQi2POIvzvFSxF8XAOVN4A/8gT/wB/7AXwrXp07Jpsn81ppVJs3+8amPqCD5vAOOk/xXa3/FL/jLPP7iuj6ljD/JVZWpaa0XBn/gD/yBP/AH/qK5PnVKmiPTXe4+tdFtypSffukNFSyfP/ZohX6tBP7AXzbxJ0lVuRrBH/gDf+AP/CW1sJcKfy9KesBl02S1v/Vf1H/G5F+dtEQFzh864LNyvw78xXaGwV9E609VsqbuPekR/IE/8Af+wB/4e8/1aYHk/5T0oJnNDRXODTsa5sy++tRXVaJ8/gFfUajL5ArA37vDRTke+Ity/alK3gj+wB/4A3/gD/yt1FJJ76jrTWLflPxVyV6T9JpMr5rsabmeClV7utHt6Sk/Pa1wD+N260zeM6qqTfv8SKF/KZl5Df7AX+/Xn6qkJvAH/sBfIlfMRZKel/xFl14w+QsyveihPV8J/GV3W+ihlgQVb++UL2oIwlrwTt8FkjTlp8eWeoMlyiz+Hjl0gGqLfy/3g5JZU8Ef+ItmP6/K1Efr/Chg8Af+wF/9x+MvSTbPpPmh6yGXP1wNOh9qvfyU19kuiQqEvwfH7qja4hvl2im2dczLjr+oDxP8rQBgqEAG/sAf+Ovh8bwt91Yz/V3uU8KOYO6Mn3zuNbZGooLjb/6YE+T+E7nWA39x4s/BX0z7eVWmCvgDf+Cv3uOxt0x+byj93Sy8t+/AbWdNbtmvk+2QqCTwe+TQAaq981O5HRvr2/2AP/AX835eXfObVII/8Af+lg32uqTbTDZx4fpNf57XMr6dbZCohPibN3aYaot/K9l24A/8Rf6zJog/Saq6VDHwB/7A3/t7VdIdJk3sWLTkT7OvPrWD7Y+opPCbM7a/Gvzbcv+GtLZHzcBf9vAX9a/IIx47HfxJUtX0/vcrAn/gr7T4CyXd7aar+w3c+iYe2iUif2jsITL/iVxb17dMgb9s4c8jPKXFwZ/U9TYwFfAH/kqOv7ck/V5B8MO2S4+bz5ZHRP7w6I8prPxE8jH1L1PgD/zlA3/vAtDAH/grI/7c9bjJz++7QfjbyS3F/ngqIqpzXZg7dmsF/g2FOvU9H5QA/pLBX5zjgb9VABhKXgF/4K8s+DPpGZf9d78NtvolD/MSkST5nLGbqsG/LvevqO4PSIhrWS8x/uLatzPzfMJs4E8uVV3eaWv90GrwB/4Kg79nJbt0w843fnbHlWcuZcsjIp87dmuZvi7zL8rfB78ENuH4pQL+ejdulG/3kh38SV0vAumQ1Aj+wF+B8bfYZd/fuPONS4EfEbnL9PCY0XL7guSHq+vRsFQ24VjWaAd/4G/dX1aV1Bn5CQd/4C87+Lu7Ftpps354/D/Y9ohKDr/Hx6yvJcFRmu9fkbRzFjZh8Af+0pp3Vck6e36WwB/4yyj+3J/3IDh3xmXH/4Ztj6jE6Hv0oIFa2nmwzI7UEv+k5H2ztAnHYyrwlx38RT03opt3Vck7Ij1S8Af+UsafSddU+nR+bepFn1/I9kdUQvTdP2oDNTYeKten1F77pEz9o921o8ZflC/6AH/Zwp9HeLFo511Vrk4Z+AN/hcDfApe+1Hb5Cb9lCyQqEfhmHdJPTe3DZP4JSftK2lvuDT1ae+J6uxfwB/4ydqOjKlNHJKOBP/CXLv5mVKrhMdMu/tzjbIdEBQffw6M3VlgZKmlfmfaVLx0iqU+v1x7wB/7SwF9K864qdQeA4A/8ZQ5/LunCvutv/W3e04+oYNCbd+BGkgZJ4c6SdpFsZ0mDFGqzyHGVa/xFfeLBX9Hx9y4Aa+AP/K11jOzir93N/p0XehDlAHP3jKpq4/4D1BhUZIsHqtMqCrSpara5pM1l2kxuW8p8U0lbyfRBuW/a9dUW716Te/xFCLY84i/O8VLFn2Kdd3XeAwj+wF/m8Pe6uR3Zdvnxk0u/sT47rq/C9g/LbRvVtK3kH5S08bL/bSJpA8mrMg3o9TcLY/z9e0zzibfciGETrmN+mDdJ6quuh2b7d/1l57K7HCorLm++8tes/jjBH/iLzCJ5wp/HOu/qeBsY8Af+soU/dz1eqdQ+1XrpSY+UCnpPHLqZ3HaVtKsC7SrXIEnbqqN90+UnzdZ02qz3wErto5RKhj/leBO2GH5W8Af+wF8s824dbwMD/sBftvAn2QO1SuWAGZee8GqhsffkYRsotL0l30emwZJ2k7RJ1wa7luuCpzkP49iES4g/j3i8zG7C4C8z+IvzFh34yyT+lgFwTfcAgj/wlz38dQaVA2Zfekzh8OePHb6pgnCYPBgpC/eWa6js3bexqPMcgz/wB/7AX4/G9pLMu7Lhb+1VpbB91fvtwR/4yxz+ZgdaOnb2pae8Xgjw+biKnlw6UrJPyYJPyn2QZMueA2XdP8fgL5n1CPyBP/AH/nKDv7WPV3XZIgN/4C/T+NOshsZg7JQLTnkj1+ibN66PmjrHyvwoPdnxSSnYqP4FuEz4i/oqBv6ytQkXEH+xr43gD/xFfyO6KrMFKyYB+AN/mcPfE5WKDp5ywbG5xJ+7TE8d9gm5HSt1HCFpo0jPMffAgL/SbsJZnndlw59KNO8ygr8IxqvKfQH4A38Zxd9rbn7QtEtOfDl38Hty3Ael9hP1pJ0i6aM9P1cp4C/O8cAf+AN/BcSfg7+k9/QInnJQldsCWQj+wF/W8LckMDu09bIT/pkr+D19xEiF4ddlHYcqtGps8yZO/HlMcwD8gb/C3+gAf+AvH/jrAqCFC8Af+MsY/kKZHdd62fHTcoE+bwn05P0Hy+wcheGIZT9BfPMG/MVnC/CXDv5Sez4h+Cst/uIcLwf4k6RqIC3s3Y1n8Af+IsWf3PWDGZcff0Pm4XfPqKq23fBYPfXAt2X2kUQWGvCX8CYM/rKFPy/JvCsb/lSieZcN/ElSNXRbYObxnxTwB/7qwJ+kydv8q+m7M7IMP28J9OScI2X6L8l3iPY0gT/wl7F7OMAf+Isdfw7+EsafJFUVhAvkBv7AXxbw91Kn2zETJ46vZRZ/Txw2Vk/NuVymnaM/TeAP/CV9vQZ/4A/8lRF/XQCU3gJ/4C8D+OsMpKNmX3H8C5mE3+NHbq/AL5X8kHg2YfCXrU0Y/BV3EwZ/2bmSgL+08CeXqq7KQvMwhQkA/sDfey5zcesVJ/wtc/B7dlxfdXZ+Vwq/JqkP+Cso/mIbD/wVdxMuMf7i2rsz83zC4uNPkqoe1has+aOnwB/4SwB/0iN9N6j9Z+bw99SnR6iz8xpJO8a3CYO/TOAvlod+wR/4S+NGRxnx5yWZd9HhrwuA1coCdYYJTlDwB/7eU2genjK55aQlmYHf84f009Lqd+T6D0lBvJsw+AN/4K+U+Ivr+abgD/zV+eXVjvZFC6pBX/AH/tLAn1x+cdsVn5uaGfw9deQeWhr+XtL2+dqEU8ZfnOPlchMGf8XdhMEf+Msh/lYzXvDgJScsktQJ/sBf0viT9HRFfb+XGfw9cfgJ8nAK+Ev+Q8mLhb8YP/UC/KWwX8SxPoK/bOEv6imV5Xm34g/vflTVy5K2AH/gL0H8Se7faL1i/OLU4ffIoQPUWLla0tH524TBH/grKf7iesoB+Csh/qJcR/OBP2n585v8RfAH/pLFn6a0XXFC6p/24Y+P+5AaK1NTx1+sPyT4A3/gD/yBv/jX5PzgbyUA6kXwB/4Sw59U88BOlywFDa10yE8cvrsqnVMl7Zo6/jzNuQj+srcJZ/lGB/gDfyXEX67n3erH6wKg2YvgD/wlhD+5+bUzLjt+Tqr4e/Kww2SaJtdW4A/8FXcTzvK8Kxv+VKJ5Vzb8KePzbvXjBZJky+8BBH/gL178SepQYOenir+nDvu8ZDdI6gf+wB/4A39pbsKlwV+c46WOP8/lvOu6BzDUi4XAn4O/jONP7vrFjEtOeDJV/LldrVXe3w/8gb8MbXLgD/wVDX9x7VXgr8fzLujyn14sBP5iWZzBX2T4k5Z60PmD1PD3xBGngL+4rgolxF9c7/WXmY/DAn/gD/wVFX/SGl8EAv7AX7T4kySTXTPzspOfTQV/Tx7+RZmDv1g2YfBX3E0Y/GUGf3HeGgB/KeNPqcy7Zc8BtBd7/Z3BH/hbe7VKtXZZKsvc44d/StKPtcYPvQZ/qeAvzvHAH/grGv7iepsh8JcB/Hkq8y6QpKo1vNir7wz+wN+6++O0iz/3ePL4O3KIAvs/SRXwlzH8xXX9BX/gD/yBP/BXHwCnXvTphZIWgT/wFxP+FJglfu+fP3XIhxWEt0reH/zFsQmDv+JuwgXEX+zrI/gDf/nB33IALvvSF7v9ncEf+KuvttbLjp+WKP6ePGwDefVPkjYrLP7iHC/OTRj8lWgTzvK8Kxv+VKJ5lxH8xTleBIezHIAmvQD+wF8M+JOZfqbEs2skfazQ+Ivr7V7AH/gDfwXEn4O/pPf1uJ5yENE6uuIVkW5PgT/wFzX+JL3dtKTpD0nSz5844gxJR4A/8Af+El4zwB/4A3+5wJ+kBSvuAbTw8bq+M/gDf90ax/538lXj304Mf08dsafMLwZ/ediEwV+u8Jfa8wnBX2nxF+d45cafJD2x0nMA7XHwB/4ixZ+k0DuvSQx/jxw6QNLvJTWmutCAv4Q3YfCXLfx5SeZd2fCnEs27wuNPkj26HICBrQ2A4A/89Wiwf8z84UkzkwKg+gQXyP2jdZ2XuD6UHPyBvzRueIA/8Bc7/rwk864M+JMk/+dyAIaVjsfBH/iL8hyb6f+Ssp8/cdhQmZ0a/6kCf+Av6es2+AN/GbzhAf5yjD9JttI9gG3nH/OSpIXgD/xF9XO5VSYkgr97RlVl9nOt9s2eo9yEwV+2NmHwV9xNGPxFcrBx7d/gL9/4k6QwfPT9n4v6JPgDf70b6N1xbG7bpcfNTwKA+vBGZ0n6OPgrOP5iGw/8FXcTBn/ZwZ9KNO8yjj+XVK2uAsDHwB/4i+JYzPzGJOznTx62rdy/Bf5KgL9YHvoFf+AvjRsdZcSfl2Te5QB/8tdtz3tfeT8AHwd/4C+KYwndblUiWYukvvFuwuAP/IG/UuIvruebgj/wlx7+JOkhaeU3gpbkFj4O/sBfBMfy8oz1n7gvbvr5E4fuINOx+dmEU8ZfnOPlchMGf8XdhMEf+Msh/uIc7z17vs1bBYBBzR5P5YDBX5HwJ0m3qaUlVOxV/1uuKviL4kvKhr8YP/UC/CWzpsW5CYO/DOIv6imV5XkXJ/4kma8KwFC9BSD4A3+SZHfGTT9/+rDBMj8C/IE/8Jdh/MX1lAPwV0L8pfhRhUXCX9cfV30IeMZ685+W6+3ETij4KyD+JHUGU+IGoGr2PUmW6CYcq2jBH/gDf+AP/PX6C3I97xLAnyQF7aveA6iWllCmueCvYPjzBPEnPdl25XHPxWqlruf+fTJx/Hma8xH8ZW8TzvKNDvCXmdt94A/8ZQl/0vM2ZParqwKwqwfBX8HwF9fPtPriv/cvqJ4uycAf+CvGJpzleVdG/HlJ5l3Z8KcSzbu1jWezlm+lq/yTbA74A389PxaPFYD+yKED5H4C+AN/4A/8gb8k1vSi4M9LMu/WNZ7PXjMAg9qc+r4D+AN/qymoxnsPYJ/q5yQfWB78Rf3tS4Y/gT/wB/7qPndx7VfgLyP4k+S2ZgAG3m+upDD+KzH4Kxz+pNfbBjz2SGyucZmsdlq58BflJlxC/MX1Xn+Z+Tgs8Af+wB/4U/3P869U7lsjAKde9OmF/p7PBAZ/4K/edc+nxvr+f09/ulmyHcEf+Ms//rwk865k+Ivz1gD4Sxl/yu68q/9Fni/YkHtfWCMAJcl8dc8DBH/gb10XX3HXcjxXHhsP/hLGX5zjgT/wVzT8xfU2Q+AvA/jz7M67+sdrXfkPweqH8gfBH/jr7sVNmheb/Vwm6XDwl+YtVvAH/hLAX5zjgT/wVzT8dW/erRuACjQH/IG/7l7cln2+YCw9/elmSR8CfwluwuAv45twWeYd+AN/4C+ieTdt3QAM330IGPyBv7ov3tHxzuLHYgOg27hc4i+58w/+SoW/KDdh8Jcd/KlE8y4j+Etkf45jfnR78KVa1HjfOgE445JxT0n+KvgDf924+D9nX31qR0zz3OQ6Mpf488TOP/gDf+Av9/hz8Jf03h7X801js1CP5919tt/kJesEoGQuaSr4A3/1XtxjfP6fHj98kKStwV9amzD4y80mnPD1HvyBP/CXC/xJvuqndAVrvKx1E4Dgr7T4W9b82AAY+H7grwibMPiLfd1I7fmE4K+0+ItzPPAX3bwL/J66AVgxn5r+Dwz+8oE/l7keV3x9AvyBP/AX5a/fSzLvyoY/lWjegb9u1KmllfrvAVzQtzJL0jvgD/zVc4UxC5+LZd3qevuXT0T684E/8JfGPRzgD/zFjj8Hf4XEX69HmGF7T11YNwDntYxvl2kW+AN/9Vxhgpo9G8st1ycP3VXSB8Af+EsEf3G90hz8gb80bniAv4Lgr7fj+d2r+9tgrV8TruVhYPAH/lb6Q5+N/V+xAFDBJyL7+cBfCpsw+CvuJgz+IjnYuJ5yAP7A3/Jxgnu6DUBf0yuBwR/4e2+vTG45aUksm4WpGfzlCH+xjQf+irsJg7/s4E8lmndlwZ/e1kbrT+02APtUw2mSQvAH/tb2D+6K6d4/Sa5dwV+O8BfLQ7/gD/ylcaOjjPjzksy7kuCvq7/a9ncs7TYAp1xw7Bta+f3dwB/4W01melUx5LO+0CDpY8nvB+AvO/gT+AN/Kc078Af+UlikPOLxAt2x5n9a98HcC/7A3zrGeSsOAGqDV3aQ1CfZTThl/MU5Xuk3YfCXrU0Y/IG/nOIvrqcceAxzuWJ/6jEALfA/gz/wt/ZJYm/EsrhXwkGlw19cH0oO/sBfGjc8EtmEwV928Bf1lAJ/vWye7Tnt6R4D8J2w468uLQV/4G8tvRnPAmG7gD/wB/6Uz8/3BX8lxF+KH1UI/lY36I1ru8Q6AfjgJScsMrO/gz/wt6bMw3cUR65dkr9ZCv7AH/gDf+Av3c/3BX+RHGzN/9grAHZt8P4n8Af+1jyGdcYCLtNHun1snuacBH/Z24QTwF/qa2EZ8aeMzzvwB/5Sxp/rKQ2ffn8EAAxvB3/gb42XDjweAEqbgz/wl41NOMvzroz485LMuxRueKSKP5Vo3sWKP0m60Wzt36AuALZeeswjLj0O/sDfar8iVC3y6/O8cX0kbQz+wB/4A3/gL6pTmnX8eUnmXez4k4K1P/+vbgBKkrn+BP7A32rnhln0t+v61jaXZPnZhMFfJu/hAH/gD/yBv7LhT3pGQ6ZPiwyAHtifYpl04C/X+IstW/nh3zJtwiXEX1xv9JyZj8MCf5nbhOOcEOAP/KWLP8ntt+t6+LdbAKx0Bn+VtBj8gb9ECn0L8Af+irMJg79M4S+uV5qDv5Txp+zOu6Tw17WB/q6er64bgK2Xj1/ssrvAH/hLJNPm4C/B+QH+wB/4A3+5x59nd94lhj89bMPbHowUgF3fqD5Vgr+y4S+MAYDhxuXBX9TTAfyBP/AH/sBfMefdWvEnya6td5RuAbA2YMDNkhaBP/AXv2ysiU0Y/OV/Ey7ovAN/4A/8ZRB/6pR1XhcLAGe3HPKOXLeCP/AX764oSd6UGP5S+R2APzbhosy7suFPJZp3GcFfInt0HPMjUfxJ0iQbOvPFWAAoSTL7HfgDf7E/dzBU38Tw50n/DsBf6fFXmBsdZcSf53fe5RV/ce1nHuP1NpV5F17TnRG7DcC31wvukPQ6+AN/MdcE/hI+/eAvubWjMPMO/IE/8JeRefecnt6mW2/X120AzmsZ3y75zeAP/CUCQPCX8CYM/rKDP5Vo3oG/VPcs8FeEefdTGz+xW5/KFfTweH4H/sDf8mJ4EbCkJvAH/sqNPy/JvCsb/lSieVc2/CmtebdU7td0d/QeAfBDz1TvlvlL4A/8xfciYDWBP/CX+D0c4A/8xY4/B3+FxZ+nNO9sgg1ve6m736FHAJw4cXxN7teBP/AX361hq4C/JDfhHOHPszafwV/h8RfneOAP/PX2RofZlT35LkFPD69ilZ9pTQ/+gT/wl2jgLzubHPjL1iYM/iI52LiecgD+wF/v95+7bOi0mYkCcNrFRz8u+V3gD/yBvxziL5aHfsFfcTdh8Jcd/KlE865s+OvBYQb2/Z5+i6B31zn7KfgDf+AP/IE/8JfYult6/HlJ5l0Z8dfd55t6qw1t/VsqANzmmeokSU+DP/AH/sqMP4E/8JfSvAN/4C+FRSoT+JOk4Hu9+Y69AmDXi0H0y/o2Q/AH/gqCvzjHK/0mDP6ytQmDP/CXU/zF9ZSDrODPdJ+Gtt6ZGgAlqbNW+x9JHfGvLOAP/GUEf3F9KDn4A39p3PBIZBMGf9nBX9RTCvwljj9JCv0/zXp3ML0G4Owrjn9BplvAH/gDf+AP/CV9/Qd/4C/hfRD8pY8/2TwNa5vU2+8eRPEjmIWXgz/wlycjgj/wB/7AH/gr6rwrMv4kedhi1vvP4IoEgNMvPm6qpMngD/ylKjvwl9NNOAH8ZWLelQ1/yvi8A3/gL4f4k7dqWNsNURxFENWPY+b/Df7KiL8kpAj+iou/KDdhj/jXBP6yswnnEH9xjpcq/lSieZc1/MkVBF/t7XP/Igfg9EuOvcsVTgN/4A/8gT/wB/5Kj7+49q3U8eclmXeZw58kv872ap0R1dEEUf5ogfuF4A/8ZRN/UX/7kuFP4A/8gT/wB/7Sw58Wq9Lw7UjNFuVg0y87bpJc94E/8Nf7wogPI8pNuIT4i+uNnjPzcVjgL3ObcJwTAvyBv3zhT3K7wIZMeSazAJTMTX4R+AN/Sa7l4K/M+ItyEwZ/mcJfXK80B38p40/ZnXdZxZ/0nPouujTq0xhEPeDWz/b5g6T54A/8gb+Ezif4A3/gD/zlBn+e3XmXTfxJsrNt9wcXZR6AEyeOr7kFZ4E/8Fcs/EV93OAP/MWMvzjHA3/gr2j486ziT7fbsNbfxrEtBXEMOuOSz94m153dningD/wVcRMGfxnfhMsy78qGP2V83hUQf4ns06XC31uy2hfj2lIDxTay/YekGvgDfxmXIvgrNf6i3ITBX0E3YfCX9p4W66MzGZ53pq/a0JnP5g6AbZcc86C5fgX+wF+ypgN/4C+N+Q3+wB/4SwZ/XpJ5p9tt6PRfxbmtBnEO7jU7T9JC8Af+wF/U5wL8xb5+FGbegT/wB/5yhr9YH/pNBIBtPzzmJckuAX/gD/xFuQmDv+zgTyWad2XDn5Kfd+AP/EmxP/SbCAAlqXPAwkskPQH+wB/4Kxn+MjOn48Sfl2TelRF/XpJ5Vzb8Kdvzzv3GuB/6TQyAs1tOfccs/Px7Tg/4A3/rKkz69wD+Ip+DnoU5Df7AH/gDfysP5Vmed4+q2nlyUttskMQ3mX7J8ZPN/ZfgD/zFsuiXZhMGf+AP/MV/JQF/4C8V/C2WheNtyOy3CgVASepoaPx/cv0L/IE/8Jf2Jgf+srUJg79IDjau55uCP/CXyPruX7KhMx9IchdNDICzLxz/lnnwJfAH/sBfGnMX/BV/EwZ/2cGfSjTvyoY/RT/vXFfZsBm/TnonDZL8ZtMvP2aSZDeAv6LhL0xwFoE/8Af+krlHAvzFdv7AX47xF/HbDLlmaOONvq4UChL/jjX7sqSXwF9R8JfkPYgZ2uRyhz+BP/CX0rwDf+AvhUUqD/iTnlMQfsa2v2NpKQC47L0BP6vufEwc+Msu/hLzX4Y+lLz0mzD4y9YmDP7AX07xF9dTDvKBv9cU2tgk3u8vMwCUpLbLjr3HpQvAH/gDf+CvMPiLc7xENmHwlx38RT2lwF928CdJWizXYdY8/WGlWJDWN97m2T7fldvd4A/8gT/wVwj8xfV8U/BXQvxl4BWr4C8m/HlNZsfZ8LYpSrnUADhx4viaGvxESa+CP/AH/vKwCYM/8Af+MoW/XM+7UuJPkn/Vhk6/URkoSPObt1103HMe+OckD6OZUOAP/IG/7G/CKTysCv7i/RWAP/AH/urB39k2bMaPlZGCtA9gxiXH32bSN8Ef+IvvVwf+coE/j+k6C/4S2oRziL84x0sVfyrRvMsF/lyur9mwGRdladsMsnAQ0y87/kIz+xn4A3/gD/yBP/CXGP7iespB6vjzksy7nOBPfqYNb7sia1tnkJUD6Vi46EyZ3QX+wB/4y+A9HJn5RATwB/7AH/hTfl7w4fp8lh72zSQAZ199aofadaRJD4G//OAvVRuCvxihnuVNGPxlZhOO80oN/sBfvvHXIfnxNrzt2qxe24IsHUzblcctCCq1w7S2TwoBf+AP/IE/8JcN/MX1NkPgL2X8KdvzLvv4e0MWHmTDZvwuw7e2sgVASZp28eceD6wyarUIBH/gL078xTke+AN/4A/85QZ/XpJ5Fwv+HlNoI23ozL8q4wVZPKjWS495xKUDZXrtvb8jB3/gL8GxwV+2NuEC4i/O8cAf+AN/SeNvihr6jEj7Ez5yDUBJmnHZ8XMCDw+Q9Ea0j/eDv+LiL8qHfsFfcTdhz/C8Kxv+VKJ5lxH8xTleufH3c1U697c9731FOSnI8sG1Xnbi/R6GB0u+EPyBP/AH/sAfmzD46+UPFte+FuujM5nG30K5n2DD2r5oQ2Z3KEcFWT/AGVec2OrS/pJeBn/gD/yBv/TXAPAH/sBfIuto9vE3W+6DbXjbdcphQR4OcsblJ8wKVWmW/FHwB/7i3YTBX67w50WZd+CvmDc6wF9B553L9SOtt3CEDW97VDktyMuBzrz82CcUNuwj6T7wB/6yvwmDv2zhz0sy78qGP5Vo3oG/jMy7ZyQ7yIZP/4oNmteuHBfk6WDbfnjMS+oM9pN0VyyrAPjrwXdKi4jgL5VzB/7AX6bw5+CvkPhTFuddKLOr1VHZxYa1/lkFKMjbAbddedyCDz3X9G8uv1BRfrgo+AN/ZcSfZ2Fegz/wB/7A38pDecbmnT8gC4bb0NZTbe+pC1WQgjwe9MSJ42szLj/xHMkPl/QW+AN/2dmEwR/4A3/xX0nAH/hLBH+vSTpTT39oiA2dNlMFK8jzwbddfuLNtdCGSZoP/sBfKptwbOOBv2xtwuAvkoON6/mmmXk+IfjLHP561juSLlSfpo/asOlX2viJNRWwIO8/wKwfHv8PdQbNkl8L/sBf4viL5aFf8FfcTTjj96yVDn9eknlXNvz1+DBDSRMVapANm36O7TH5TRW4ahF+iLYrj1sg6eTmr107IfTgGpm2AH/gD/yBv0LiL67nm4I/8FcY/HX7od+lkq5TULnE9pr6D5WkoEg/TOvlJ/2poam6i5v9L/gDf/nchMEf+AN/4C9D+ItzvPTxt1CuH8n9ozZs+r+XCX9SQe4BXLkpFxz7hqTjhn7t1zeYdJmkbcEf+CvfJgz+srUJgz/wl1P8xfV801TxZ/Pk4f9IutaGty1QSQuK+oPNuPzEmwL13dlM35O0BPzlDX8h+AN/Kakry5sw+MsO/qKeUuAvZvwtkTRRgQ7Q0NZdbXjbD8uMP6mA9wCuXOvl4xdLatnra7/8TeCVCyUdKcnAX9bxF/WvAfyBv3ovDv7AXxo3PMBfTPhbItOdCv0Pkm4uO/hKBcB3m3n5yU9IGjfkzN/sUq34d9z1mS4Igj/wV7RNGPyBP/CXKfzlet7lEn9vSLpLspvUEdxapDduBoC9aNaPTnhI0vihX/11syn8rmRjtco9guAP/LEJp/KwKvhL5moI/sBfsfC3RG4zZX6navqLnt16VlHftw8ARtCMK05slfRvw868dntV7HS5TpHUD/yBP/C3jgE84vHAX8KbcA7xF+d4qeJPJZp3kY3XKdOjCvWAzKcrUJv6LrzfBs1rX3GR6cgOAK67th+d9Kikr+xzxi+/3161z8uDz0m+A/gDf+AP/IG/jOAvrqccpI4/L8m86/Z4L0p6XrLnJH9W5s8rtKdkNl8brv+wbX/HUugGACPr3itPfkXSBZIuaD7zlyPCSuVzcj9S0kbgr44vs5R+cXnEn7K+CZcMf+Y3qWbfiO5ERX1lsOweWqRjL0l27SgcITI+74JaoI5wfQVBo8xXPNrmwVsKa6EqDW/I1Km+b7z43nvzCAAmWOuPTp4madqolntOW/LWM6M8DA+X2aclbQn+YrZMGfAX1xs9Z+4emJzc8+e20Ha76wlWPiICgCRJmtyyX6eku5b978vDzvjlzhYEY9x8tGTDJW0K/sAf+Msx/oiIACCtq7YrT54vab6kH0nSyNOv2aKjWtkjkD7uro+7+R4mfUhSQ7nwl+ZjwOAP/IE/IiIAmGBTf/z55yU9L+m2lTYX2+u0X20WVG1LM20p+WYyr8ptYNe/RwGl2jo/JCNM7Cx0faea29/Tsx74yw7+ovYc+CMiAoC5yHzmVXpRXa9ims35AH/lwl9Kn7EK/oiIul3AKSDwB/7AHxERACQCf+AvPrCBPyIiAEiUyv4N/pLDX2rPJwR/REQAkAqCvyjf8R78ZQt/GfiMVSIiAEgE/jKBvzjHA39ERACQKGciLAf+4vp8X/BHRAQAicqBvxiODfyBPyIiAEiUMfzFNh74yw7+iIgIABL4W+0w4K+4+MvhZ1oTEQFAorgNCf7AH/gjIgKABP5i9BD4A39ERACQqDD4i/FTL8BfMooDf0REAJDAH/jLIP7iesUv+CMiAoAE/sAf+CMiAoBE4C9m/EWNkhQeVi0U/lAhEQFAIvAXO/6i/Hxfj9hJ4I+IqCxVOQUE/sBfifF3hM8dvXfvx/YMz7swGfN64l/Y+/HCmI5vzV9yog2ZMoVFmwAgUVbxJ/BXAvxJ0nrL/ldQ/Lkki/AwE36+qcd4vY3rbYbWNu9cfVm0KSvxEDCBv9Uv1BnFX9RO4mHfYuMvysMEf72ed+bGwk0AkAj8pbwJg7/M4C/OWwPgL2X8EQFAIvAH/sDfasf2ksy7MuJvpX/kHkACgETgD/yBP/BXIvxJkioAkAAgEfhLaxMuIP7iHA/8gb9I8EcEAInAXyE24Qzhz8uOP5Vo3mUEfz0ZL+QhYAKAROAP/IG/qOce+EsOf7zBOAFAIvCXe/zFORb4A3/g7924B5AAIBH4yxD+Uns+IfgrLf7iHC+r9/zxKmACgETgL5/4i3ITBn/ZwZ9KNO9Swh8RACRK8R4Ez/jxgT/wlwr+HPwlgT8LuAeQACBRofAX1+f7gj/wl8YND/AXPf6WEZC1nQAgUZKYBH8Z2oTBXyQHG9dTDsBfXPgjAoBE4K+s+ItyEwZ/2cGfSjTvejEe7wNIAJAI/IG/lPEX53ilw5+XZN7FrWQiAEgE/sBfvPiL65Xm4A/8rXlg7gEkAEgUt//AX1E3YfAH/vKIP0lWAYAEAIni29xj/NQL8JeM4uLchMFfBvEX9ZTK8rwjAoBE4C/P+Ivr7V7AXwnx5xFeLMPzrsZDwAQAicAf+AN/4E+pfk51ovNOfBQcAUCibOMv6j0ghYdVwV+8vwLwlzz+cj/veAyYACBRiTZhj3i/An+Z2YTBX4bwp3zMO+4BJABIBP7AH/hLFH9xjpc6/jwv8w4AEgAkyvQmB/7AX9HwF9fzTcFfMvOOCAASLVtY43qvv8x8HBb4K/4mDP5KhT8eAiYASFRk/EW5CYO/TOEvrleag7+U8adszzsiAEgE/sAf+AN/UePPk5l3YcA9gAQAicAf+AN/4K80+OsKABIAJAJ/0X+7TOMvzvHAH/jLPv6IACAR+EtqE84Q/rzs+FOJ5l1G8BfneD35cl4EQgCQCPyBv7Lhz8Ff0viL6ykH3tPxACABQCLwFweIwB/4A38ZxR8RACQCfz35wtSeTwj+Sou/OMcrI/6MF4EQACRKFpOlwl+UmzD4yw7+VKJ5V0D8EQFAopTwF+d44A/8xY4/B395xx/vA0gAkCgF/MX1+b7gD/ylccMD/OULf11fCwApM1U5BQT+wF+87ikx/uJ6ykH2591SSe/I9IZcLqlBrgGS1l/7HQ8Ff9iX5wASACQCf9nFX5SbMPjLDv4U17xbINe9CmyyTA/Kg3/q45OfMVO4ylc8elCjFi34qGqVHWQ+RG77ST6kay8qw3P+uAeQACAR+AN/ceoE/HX3i7s3796R6UaZXac3grttv8md9XyVbX/HUknzlv3vRkny6cMGqqHhSJlOkGtfdeepSbzggwgAEoG/AuLPwV/G8PeqXD9Rg//QdpvyRhQ/qQ1vWyDpWknX+sy9t1NFX5HrC5KaUsFfnOOFrNKUnXgRCIE/8KfoH34DfwXD3xK5vqdw0TY2+O8tUeFvFQzuNeUJ23PKVxRUd9KyewgTx19cTzlwiYeAKUtxDyCBvyLjL87xEtmEwV8G8He3PDjVBk9+LKlrtO0x+SlJR/p9Iw+S288lbV0A/PEiEMpU3ANI4K/I+Ivr7V7AXxnwF0q6UI9tNjZJ/L0HgntOvUOd7XtIui33+CPKWNwDSOAP/IE/8Pf+3lagI+3jf78z7Wu5DZvxmrsO0ex9vif5t/ONP94ImrIT9wBSIS2YwgDgL2u/AvDX0/P8umRjs4C/5Qg0uQ259zsyna73vJSCe/6IACCVV3xx4s8jHg/8JbwJ5xB/cY637m/3liwYbXv+rTWL13obPOUnMn0pt/gzXgRCAJAI/IE/8BfpKe01/hbL7RDbY/IDWb722+ApV8vCltzhT5JCXgRCAJAI/IE/8Jcd/EmmL9ngv92bh1XABk/7nqTf5gp/RACQKCubMPgrJP4yP+8yiD+3X9kef/91rpaDvg2nSvpHvvDHQ8AEAIkKtAmDv0zhL9J7/0qAP+kZVRtPz9uKYIMmv60wPFnd+XyNtO/5M14FTACQCPyBP/CXPv4k86/Y7ncuyuPKYENbp6nrY+TSnXc87EsAkAj85R5/cY4H/rKFP9edtse9f8z3GtFwjqQFuZh3fBIIAUCiImzCBcWfg79S4E+SPPivvK8SNmTyq5Kuyv+8IwKARDEALcObMPjL5iZc+Hmnv9uQyVMKsUY0+OWS3knsxl1P510YsucSACRiEwZ/2cOflwV/kq/lXrOcZbtPe1nmN6z9fGT5bYaIACBRvvEX51jgD/xF9qv3BVracUuh1ovQrgN/RACQcr+YR/F+WSngL7XnE4K/0uKvJ+OZbrARrYsLtWY8ucXdkl7MNP54EQgBQKJ1tnGx8ecRXhT8ZQd/ysm8s7uKtmDY+Ik1hbo7PvxFsuUCQAKAROtoQ/AH/vKHP8/HvPPa5ILuaPfEhz8e+iUASJRE64E/8JcI/uIcL5vz7mnbc+rzhVw1QrVmGn/GR8ERACRaV33BX0yBPyXyXn9ZnXfeg8/PzUsbDnxM8lom8beMgCztBACJ1n5LuQP8xSBE8Jdx/Cn+eWf2SGGXje3vWCrpyYziL6IXtxEBQCpybkvAX07wF+d4pcNfIu8x+ULBV48XM4k/nkNIAJCoruoEIPhLHX8O/nKEP8n97YLfelwI/ogAIOW3d8BfnPiLel8Df7nAX9eqX3AA2oJM4s/F+wASACSqo5dLg784x/MYjw/8ZRB/dVUt9tLhDZnEHxEAJKrrVvzzpcFfXG/3Av5KiL86viDs6Vss5WbtGJBZ/PEiEAKAROtaw8NnwR/4A38xzD3TwGIvHj6w+6ctqXv++CQQAoBE65qa/4wFL+Av9lMG/jKMv66Lfrjgtx63yyb+iAAgUT39o+4NrkcLLfjr3dhRftJCDvEX53jx4k+SdijqouH3j9pA0iaZxR+fBEIAkGgdLW6cV9dNafAH/tLAX1xPOYgff5K0k3tB1/7OJYMyi79lBGRxJwBItLZVco8/vinpUfAH/sBfpPiTpA10/967FnPlqHwiw/iTpAYRAUCidTJwFvgrKP4iD/x166Ju+xdzzfD9M4w/yXx91nUCgETrLGwFfwXFX6T3/oG/Hlz04MLRr+v5fyMzi7+uLZd7AAkAEq17dvpd4A/8gb/I8SdJ+/mcUVsVar2odXxGUlPk17PI8CfeB5AAIFE92Q53PiLTs+AvxuMDf2XEX9fa39F5XKEWjNBPSGbe9RB/kmR6g5WdACBRfQvtnbE4Ke/487LjL+rDLBX+ui5kOt0fPaixEKvEzOahMu2Tafx1AfB11nQCgER13aoPbszGJgz+soW/KN9st4T462pLLVh4YjEWCjsvJ/PuNRZ1AoBEda23A+6SevKwSUwPNYI/8FcM/L3beT5rcL9cLxGzRw6XdEgu5l3oj7OoEwAkqud2/aCJ7TL9MfJN0yMcC/yBv3ziT5I+JGs6L7f4mzCuotCv0vvfYDmb865Ti/vOY1UnAEhU/63m69PBX9T7NfgrLf7iHM97eyH7hs/aN59vDP3h58+UtEdO5t2jtt/kJSzoBACJ6m3nO++R9M/k8RflJgz+soO/qH9FWZ53dV2ojxT+waeMHJCnZcFn7z1Y8h/Ee+Mu0hsdD7CYEwAk6kZmcpn9HPyBv9ikV178LbuS6WPqq6vc8/FZtT6teSOF4e8lNb73R/Usz7v7Wc0JABJ1t9B/Jfli8FdS/MU5Xtnxt0KBx+m+vf8rB/jrq4bgFkkfyRH+pKByFws5AUCi7m5Ng/78utyuyd8mDP4iOdi4nvcH/t7/Zef57JFfzSz+5g3qowb9XvKRseMv2vFe0pDWB1jJCQAS9aTQL5LUXoJNGPxlGn8q9rxzu9xn7X1B9vA3aj0tWv8WyQ6JD3+KZ965bjGLdcYRAUAqbrbrnc9K+jX4y8TOVmL8eRnm3dk+a+9f+D2jmjKBv/tGbKN32v8u04Hx4i+mV5pXbAIrOAFAot5UrV0geTv46+nY4A/81ftl/nkN6Gj1+/fdPlX8zRzxadV0v1Z+u5c84U96SU9ufQ+LNwFAol5kH7vrCbn9uDybMPgDf6ng793/+Lhqtft89sj/8FmDGxKF3/Rhm/nMEb+RdJOkDXOKP0l2jY2fWGP1psztp5wCylv++Jj11R78U65NE9uE67p4bJsw+CsU/rrxBeni7/3Nk/t5GjIt1uez+Zyx/bV04Zdkdp6kDVY9tFy9zVCnLNzOhs58lpWbACBRFEvsw2O/INfPwR/4Kyz+MjvvbK5cF8sW32BDZr8T2Sy4b+QWCv1kub4i6QOrP7Scvcek6wYb3vYZVmwCgESRGWRcRQ+/1SZpMPgDf+AvlXm3UNINcv+jqn3+ZntMfrPbh9I6fFtVK6MlP0rS/pIqaz603OHP5TbEmqffx4pNAJAoyuX74TG7yoOZ8pU+DQD8xfd2L+AP/K25mtznSMEcmf4hDx+XwjflwVuqBKFqtUYFtp5cm8n1MZntIIVDJPtwfcecO/xJ0s02vO0wVmoCgERxIHDe2HMlnQ/+wF+0pzTL+OvhD5bLeZdb/IUKgyE2opWPf6PMxquAKd+93H6xpDbwB/7AH/jLCP4kt2vBHwFAohiz/SZ3qqbPSXob/IE/8Af+UsPfit5QR8O5rM4EAIniRuBudz4i0yngL45NE/yBP/BX1/lb8Vfftn3vfYWVmQAgURII3PnO30t2GfiLcs+Mcjzwlx38KdvzLt/4m6JnPvQzVmQCgERJ9vLSs2U+GfyBP/AXI7ByM+8Sx99bqlWO41M/CAASJVzX8wHDoyV/KhP4i3M88Af+wF+W8CeZn2kjpz3NSkwAkCgNBO7615dUqfybpPqegxMn/rzs+Iv6MMFfqr8E8Le2v/qNDZvxG1ZgAoBEaSJwxz/9Q6E+KflC8FeUTRj89W5sj+X0gz9J0n0Kgy+y8lLu9kpOARU1nzd2f8lvl1bzSSHgD/yBvx6O6yWZd3Xh70VJe9nwtudYcSlvcQ8gFffWzaA775b8BEmd4A/8gT/wFzH+Fkk6HPwRACTKJALvmqDQDpe0BPzlcRNOEH9xjgf+ioa/drmNs+Ft01llKbf7I6eAypDPHTNKZpMkrQf+CrMJR4s1j3g88LeWsT3P864mt2OsefoEVlbKc9wDSOW4pbPrXZNlfpBMb4E/8Af+wF8P510ot1PAHwFAojwhcNBdU1Sz0ZKeB38x4C/O8cAf+Esff+2SjrXm6b9iNaVC7ImcAipb/sgBW6hTN0kaGv0mXGL8xfWiD494PPBXHPwlN+8WyW2cNU+/gxWUihL3AFL5bvXs+Jfn1VjdV7LfZA5/cY4H/sBfIfCnpOfdGwqDseCPCrcXcgqorLnLNH/M2XL9d7duDMWJPwd/4A/81XXAycy7+TI/3IbN+CcrJgFAoqJBcN7+B8mDX0naFPyBv1Lhb5UhwN9K/VGd1RNs76kLWSUJABIVFYFzxm6qSniNpE+luwmDP/AH/lLGn8v8Ig2d8U0zhayOBACJio5Al+mh0WfI7EJJTeCvzPjrxheAv5zhbzUDrfjjS5JOtuFtt7MiEgAkKhsE543eWW7/K+nj4A/89f6i4C8n+LtD1c7P25DZL7AKEgAkKisCnxzVpLer50g6R1Ij+AN/4K+w+Fso6as2vO2XrHwEAImoa394YPTHVLGfSBqTj00Y/IE/8NcN/N0t81Ns2IwnWe0IABLRqlvHQ2MPkftVUrgV+IsYa3F9ykeq+OvhDwb+ksLfizI/W0NnXGcW15sUEmU73giaqJ5bSrvcOUlLfReZ/VhSJ/gDf+Avl/jrlOkKSTvYsBm/AX9U6n2NU0DUze1kzn47qFL5L7l/plvXIfAH/sBfmvj7u+Rn2rAZc1jFiAAgUS8gOHYXVcLvyH1captw5AAEf+CvaPizh6TwP23YjImsWkQAkCi6bWvu/iMknS/ZJ8Af+IvuEKL8iLecvNI8Svy5HpH5DzR0xvW8oTMRACSKEYKjPyXpPyTtC/7AH/hLDX9PSP6fenqb6238xBorExEAJEoGgvPG7KFQX5P7ZyVVwR/4A38J4M90nzz8od7p91vbb3KniAgAEqUCwftHbatK9YtSeKqkDUqxCYO/Xo4N/rpZKOl2Bfqh7TX9LlYdIgBIlCUIbqBKcKqkL0raFvyBv/jxFzEAszfvFsh1vUK73Ea0PsYqQwQAibILQW8JNGfKCAV+vOTHSuoP/sAf+OtWs+V+tRb3/a3tN/ltVhUiAEiULwzOGrO++tSOktsJMo0Ef938Qo94PPCX5Xn3olwTFNovbETrXFYPIgBIVAwMzh29m+Qny3W0pM3yhb81DAT+wF/v5t3bct0m12+1pOl2XtRBBACJigtBbwk09297yO0QBTpGru3BH/hLB38Rj1ffvHtH0t2STdQ7jTfyEC8RACQqJwgf2G+QzMbJfJxcO0eKtbge+gV/4K9b+PM3JfuLZLeqadENtvuDi7jmEwFAInp3m7xv9M6q+hHy8JOS7aXl7y8I/sBfrvAXyvSAQrtTCu/UgLen2qB57VzDiQAgEa1rS50ztr+svVlhMEbmYyTtufbrcpbxV8cXg7984096Wa6/yf0uhcFtNqL1X1yLiQAgEfV2m31g/y1lPlrSGJnGyLU5+AN/KeLvRUnTZD5FNf+rhrXNNYv6XamJCAAS0Xv38vtG76xKrVnScMmHSjZIrgr4A38x4K8m0zy5TZWpVQqm2l5TnuBaSAQAiShtEM4btZ6W2mCZhsnCYZINk7Ql+MsJ/lYZIlX8PSPpQbnNlrxVHrba8LYFXMuIACAR5QGFD+y/pVQbKg/2ksJBMu0iaVvJgnzhrxtfAP66g792SQ9JPkdmD6oWzFGHPWD7THmDaw8RACSiIqFw1iH91OftneQaJA8HSTZI8kGStnnPWgH+ioS/RZI/JrdHZXpU8nkK7EGp/REbMruDawURACSissJw3qj11O47ybSL3D4iaVsp3FayD0vavP51JMuf71to/C2V+eNy+6fkj8rtUYX2mNT5qA1ve44ZTgQAiYi6Z5RHD2rU24s+JNm2XTC0bVYPRPAXE/6WSPqXXM8r0DNyf15mzym051TR81oaPqvm1hfMFDJbiQgAElEyQLxnVFUDapvItImCYDPJN5V8EynYVO6bSdpk2f8+KGlTSf1Kjr8OuV6T6XWFek3mr0n+mmSvSfaqFL6mQC+rs/KsGux52/PeV5hlRAQAiSjfYJw1uJ+C9TdR0LmROoP+slp/BcFAuQ+UrL8s7C+39eUaIPP+kvpL2kCy9STvL1P/ZQ6ryDXwfWvdBpGAzbVYXfe8rdxCKVwq2QJ1fabtEklvynyJQi1WELwp96WSLZK0UK4lMi2UaaFq4Wvy6qvypa/xiloiAoBERHFi8/5RG6jSuWINXBKsp6bw7fdcqFLtsEGT3+ZsEVHR+v9m2E9gg1QFeAAAACV0RVh0ZGF0ZTpjcmVhdGUAMjAxNy0wOC0xMVQxNToxODoyNCswMDowMNvcyOcAAAAldEVYdGRhdGU6bW9kaWZ5ADIwMTctMDgtMTFUMTU6MTg6MjQrMDA6MDCqgXBbAAAAAElFTkSuQmCC;fontColor=default;" vertex="1" parent="1">
                    <mxGeometry x="170" y="200" width="70" height="70" as="geometry"/>
                </mxCell>
            </root>
        </mxGraphModel>
    </diagram>
</mxfile>